<svg width="154" height="91" viewBox="0 0 154 91" fill="none" xmlns="http://www.w3.org/2000/svg">
<path d="M136.483 62.8626C136.483 62.8626 127.87 59.4496 125.696 67.6148C123.526 75.7814 126.671 81.6268 133.564 79.0772C135.663 81.7012 140.234 80.7268 141.207 79.6788C145.628 83.5762 155.444 79.6028 152.747 69.4121C150.05 59.2241 136.483 62.8626 136.483 62.8626Z" fill="#1B181A"/>
<path d="M150.771 67.514C151.91 69.3593 152.142 71.7099 152.018 73.9337C151.646 75.5561 150.931 77.0869 149.815 78.2895C147.932 80.3108 142.935 80.5228 141.5 77.8749C140.412 75.8697 140.892 73.1217 141.783 70.9099C141.928 70.4203 142.1 69.9271 142.276 69.4348C140.752 71.9072 139.562 75.0416 140.628 77.9312C140.759 78.314 140.951 78.638 141.166 78.9217C139.983 80.1645 138.219 79.6536 136.726 79.4775C134.89 79.2499 133.962 78.3895 133.618 76.5884C132.962 73.1791 133.4 70.0525 135.667 67.3561L135.588 67.2843C132.923 70.2775 131.719 74.5337 133.258 78.4056L133.284 78.4681C131.367 78.1749 128.495 78.1859 127.51 76.3869C126.986 75.426 126.423 74.7525 126.211 73.6047C125.996 72.4135 125.971 71.1416 126.083 69.9364C126.318 67.4416 127.312 64.9593 129.486 63.5656C131.512 62.2629 134.563 62.6348 136.426 64.0151L137.314 63.6775C138.203 63.4217 139.126 63.2416 140.05 63.1697C142.944 62.9525 146.368 63.9176 148.783 65.4807C149.638 66.0312 150.286 66.726 150.771 67.514Z" fill="#995C2C"/>
<path d="M130.419 64.6283L130.418 64.5136C128.194 65.3631 127.314 67.4735 127.19 69.7429C127.072 71.8762 127.815 75.9095 129.796 77.1454C130.13 77.3538 130.492 76.6965 130.396 76.4283C129.759 74.6726 128.723 73.2481 128.278 71.3762C127.662 68.8002 128.042 66.1511 130.419 64.6283Z" fill="#FFFFF7"/>
<path d="M135.76 68.5882C133.688 71.3226 132.857 75.7321 135.153 78.6215C135.436 78.9773 135.935 78.2439 135.817 77.9414C134.537 74.6403 134.076 71.8987 135.909 68.6482C135.989 68.5045 135.837 68.4867 135.76 68.5882Z" fill="#FFFFF7"/>
<path d="M144.474 77.7793C141.981 76.3049 142.625 73.5563 142.877 71.1205C142.894 70.9418 142.682 71.1126 142.657 71.1929C142.096 72.911 141.474 74.1246 141.678 75.9741C141.824 77.2897 142.438 78.6074 143.848 78.8178C144.212 78.8725 144.886 78.023 144.474 77.7793Z" fill="#FFFFF7"/>
<path d="M16.9658 62.8626C16.9658 62.8626 25.5791 59.4496 27.7511 67.6148C29.9231 75.7814 26.7778 81.6268 19.8845 79.0788C17.7858 81.7012 13.2151 80.7268 12.2418 79.6788C7.82048 83.5762 -1.99552 79.6028 0.70181 69.4121C3.39914 59.2241 16.9658 62.8626 16.9658 62.8626Z" fill="#1B181A"/>
<path d="M2.67896 67.514C1.54029 69.3593 1.30829 71.7099 1.43229 73.9337C1.80429 75.5561 2.51896 77.0869 3.63496 78.2895C5.51763 80.3108 10.515 80.5228 11.9496 77.8749C13.0376 75.8697 12.5576 73.1217 11.667 70.9099C11.5216 70.4203 11.3496 69.9271 11.1736 69.4348C12.6963 71.9072 13.8883 75.0416 12.8216 77.9312C12.691 78.314 12.499 78.638 12.2843 78.9217C13.467 80.1645 15.2296 79.6536 16.7243 79.4775C18.559 79.2499 19.4883 78.3895 19.8323 76.5884C20.4883 73.1791 20.0496 70.0525 17.783 67.3561L17.8603 67.2843C20.527 70.2775 21.731 74.5337 20.1923 78.4056L20.1656 78.4681C22.0816 78.1749 24.955 78.1859 25.9403 76.3869C26.4643 75.426 27.027 74.7525 27.239 73.6047C27.4536 72.4135 27.479 71.1416 27.3656 69.9364C27.1323 67.4416 26.1363 64.9593 23.9643 63.5656C21.9376 62.2629 18.8856 62.6348 17.0243 64.0151L16.1363 63.6775C15.247 63.4217 14.3243 63.2416 13.4003 63.1697C10.5056 62.9525 7.08163 63.9176 4.66696 65.4807C3.81096 66.0312 3.16429 66.726 2.67896 67.514Z" fill="#995C2C"/>
<path d="M23.0312 64.6283L23.0326 64.5136C25.2566 65.3631 26.1366 67.4735 26.2606 69.7429C26.3779 71.8762 25.6353 75.9095 23.6539 77.1454C23.3206 77.3538 22.9566 76.6965 23.0539 76.4283C23.6913 74.6726 24.7273 73.2481 25.1726 71.3762C25.7886 68.8002 25.4086 66.1511 23.0312 64.6283Z" fill="#FFFFF7"/>
<path d="M17.6895 68.5882C19.7615 71.3226 20.5922 75.7321 18.2962 78.6215C18.0135 78.9773 17.5135 78.2439 17.6322 77.9414C18.9122 74.6403 19.3735 71.8987 17.5402 68.6482C17.4602 68.5045 17.6122 68.4867 17.6895 68.5882Z" fill="#FFFFF7"/>
<path d="M8.97417 77.7793C11.4688 76.3049 10.8248 73.5563 10.5728 71.1205C10.5555 70.9418 10.7675 71.1126 10.7928 71.1929C11.3542 72.911 11.9755 74.1246 11.7715 75.9741C11.6262 77.2897 11.0115 78.6074 9.60216 78.8178C9.23683 78.8725 8.5635 78.023 8.97417 77.7793Z" fill="#FFFFF7"/>
<path d="M132.248 56.9097C131.576 57.5472 131.028 58.168 130.098 58.4003L129.95 58.3721C129.12 58.6988 128.207 58.8456 127.308 58.7748C127.55 59.0311 127.767 59.3138 127.912 59.6378C129.023 61.9882 129.346 64.5603 129.326 67.1259C129.312 67.4071 128.911 67.7988 128.696 67.4841C127.49 65.6882 125.458 65.0497 123.604 64.1841C123.502 67.1029 121.72 69.9805 119.95 72.1882C117.216 75.6524 113.516 78.8712 109.711 81.0773C101.476 85.8456 91.3085 88.356 81.7445 88.5482C81.0591 88.4602 80.3445 88.3805 79.6858 88.4603H79.6831L79.5445 88.4456C74.7685 91.8524 67.0285 91.8269 63.2005 87.6164L63.0618 87.7138C61.8298 88.144 60.4298 87.9628 59.1351 87.8893C58.3351 87.8336 57.5165 87.7789 56.7178 87.695C56.3485 87.6378 55.9671 87.5603 55.6218 87.4269L55.5445 87.4346C46.4458 85.9097 37.1978 82.0242 31.8991 74.0721C28.2005 68.5258 26.0565 60.0258 29.3498 53.843C26.7045 55.0497 24.6925 57.1029 24.1018 60.0655C24.0551 60.3175 23.4818 60.7106 23.4351 60.268C23.1791 57.5472 22.9165 55.0029 23.7031 52.3311C24.0965 51.0229 24.6031 50.0256 25.2391 49.1096C23.3231 49.7549 21.5858 50.5229 20.0271 51.8644C19.8538 52.0175 19.3338 52.131 19.4271 51.7216C19.9578 49.4402 20.9658 47.4136 22.2071 45.4669C22.5538 44.9042 23.0378 44.4642 23.5591 44.0509C20.5298 43.3176 19.4845 40.7016 20.2911 37.7243C20.3391 37.5576 20.6978 37.2789 20.8591 37.4749C23.4911 41.0603 28.5951 39.2922 31.8178 36.6896C25.6098 28.2496 24.5618 17.8176 26.1991 7.76825C26.2258 7.54558 26.4551 7.33359 26.6885 7.34426C32.4898 7.66826 38.3031 8.98159 43.8245 10.7603C46.4738 11.6149 49.0925 12.5643 51.6111 13.7616C52.5578 14.2123 54.4138 15.7523 55.4351 15.6923L55.5645 15.7296C56.1831 15.4563 56.7871 15.1696 57.3751 14.9363C63.2298 12.4923 69.4191 11.0096 75.7925 10.9803C82.8311 10.9363 90.0631 12.0416 96.7071 14.5189C100.683 9.92692 106.474 6.43359 112.114 4.3296C115.554 3.06693 119.15 2.49625 122.618 1.37092C123.331 1.13092 125.856 0.108257 126.395 1.17492C129.042 6.54692 130.876 12.0416 130.891 18.1363C130.891 19.7376 130.816 21.3336 130.688 22.9256C130.29 25.3203 129.802 27.7043 129.256 30.0949C129.016 31.1296 128.822 32.4976 128.526 33.8882C127.992 37.4616 126.022 41.2696 123.74 43.8149C123.844 44.1256 123.943 44.4349 124.027 44.7643C124.527 46.6723 124.75 48.6629 125.667 50.4576C126.447 51.944 127.403 53.544 128.822 54.5415C129.218 54.8227 131.76 56.656 132.248 55.9388L132.31 55.8764L132.523 55.7737L132.579 55.7893C133.07 55.9388 132.44 56.7294 132.248 56.9097Z" fill="#1B181A"/>
<path d="M131.4 57.207C131.517 57.0966 131.636 56.9873 131.72 56.8633L131.837 56.7471L131.495 56.7789C130.396 56.8539 128.847 56.0618 128.011 55.3737C123.192 51.4645 124.199 45.3618 121.693 40.2498C121.623 40.0831 121.905 39.8511 122.003 40.0404C122.619 41.0844 123.137 42.1191 123.536 43.2204C124.956 40.7711 126.467 38.2364 127.423 35.5404C128.463 30.5191 129.6 25.5124 129.721 20.3724C129.795 17.3164 129.644 14.2005 128.905 11.1991C128.279 8.65112 127.607 5.61111 126.277 3.30311C125.613 2.18445 125.335 1.42179 123.739 1.82712C122.589 2.12445 121.477 2.42179 120.336 2.69512C117.291 3.39779 114.167 4.14846 111.316 5.41646C106.027 7.76979 101.345 10.7164 97.1787 14.6898C99.3827 15.5311 101.496 16.5551 103.524 17.7298C108.012 12.8138 114.425 9.44712 121.107 9.12845C120.964 8.68579 120.813 8.22311 120.66 7.76978C122.108 10.0071 123.019 12.4751 123.548 15.0645C123.799 17.2685 123.835 19.4791 123.817 21.5018C123.741 25.5991 123.192 30.5098 121.376 34.2645C121.219 34.4218 121.056 34.5391 120.873 34.6445L120.879 34.5578C121.756 32.6058 121.935 30.6231 122.309 28.5404C122.773 26.0218 123.145 23.4111 123.053 20.8485C122.983 18.7138 122.689 16.6031 122.484 14.4805C122.327 12.8271 121.863 11.3191 121.344 9.80712C114.452 10.3698 108.907 13.2898 103.952 17.9724C105.265 18.7551 106.531 19.6005 107.757 20.5165C108.145 20.8845 108.56 21.2591 108.971 21.6351C109.879 22.4498 110.596 23.4364 111.224 24.4764L110.956 24.4364C105.953 21.0578 101.652 17.3431 95.8307 15.3605C89.9627 13.3765 83.632 12.0951 77.428 11.9618C70.8787 11.8245 64.4293 12.8538 58.336 15.3351C53.588 17.2684 47.2187 20.3018 44.3947 24.8285C44.3 24.9711 44.08 24.9164 44.1907 24.7364C44.9667 23.3578 46.0533 22.1018 47.304 20.9591C44.7627 18.6631 42.416 16.2964 39.2307 14.8844C36.82 13.8178 34.3387 13.6298 31.8467 13.3951C30.7933 14.7645 31.144 19.4365 31.2413 20.6418C31.5787 24.3138 32.5667 27.6684 34.168 30.9884C34.2747 31.1924 33.8933 31.5204 33.7573 31.2751C31.5267 27.5178 29.6627 21.5618 30.62 17.1671C30.7933 16.3405 30.6973 14.2578 31.3733 13.3538C30.5093 13.2738 29.62 13.1724 28.74 13.0191C28.5387 12.9884 28.7027 12.6925 28.8587 12.7098C32.4227 13.0085 36.2187 12.7285 39.5587 14.3605C42.8253 15.9831 45.188 17.9658 47.8853 20.3871L47.928 20.4445C49.9827 18.7138 52.3973 17.2684 54.7613 16.1231C53.9867 15.9578 53.1693 15.3511 52.5587 15.0258C50.7667 14.0818 48.86 13.2991 46.964 12.5991C41.64 10.6351 35.9907 9.05912 30.352 8.38978C28.9973 8.22312 27 7.43511 26.72 9.22045C26.484 10.7511 26.3947 12.2245 26.3947 13.7925C26.3947 16.2965 26.5 18.7765 26.9 21.2485C27.4893 24.9711 28.6187 28.2458 30.1333 31.4498C30.6373 33.1298 31.2587 34.9111 32.164 36.4005C32.912 35.7511 33.54 35.0645 33.9773 34.3978C34.06 34.2645 34.3213 34.2591 34.2253 34.4538C32.228 38.6044 24.6267 42.2724 20.784 38.4871C20.4653 41.0204 21.7053 42.6831 24.2173 43.5471L24.264 43.5711C24.8307 43.1884 25.452 42.8685 26.0573 42.5458C25.8627 42.7698 25.672 43.0005 25.5 43.2311C24.572 43.8165 23.6667 44.4658 23 45.2831C21.7293 46.8418 20.8667 48.8405 20.3613 50.8178C21.908 49.6485 23.5987 48.8404 25.5387 48.4418L25.7187 48.4805C26.1773 47.9031 26.7053 47.3338 27.2933 46.7485C26.8627 47.4778 26.4267 48.2165 26.032 48.9938C25.2 50.1978 24.5507 51.4538 24.2453 53.1299C23.912 54.9206 24.0213 56.6274 24.0653 58.3763C25.156 55.9403 27.1093 54.0018 29.7667 53.1564C29.9533 52.8575 30.1453 52.5908 30.352 52.3112C29.62 53.8872 29.148 55.5804 29.0653 57.3512C28.6147 59.5455 28.6187 61.8403 29.148 64.3727C30.048 68.7206 31.8587 72.7591 34.9467 76.007C40.8147 82.1607 47.9133 84.5607 55.8627 86.8326L55.9533 86.8727C58.1627 87.3217 60.6667 87.4898 62.8787 87.2394C62.2587 86.4857 61.7693 85.5779 61.4293 84.5711C61.716 85.0029 62.0467 85.4242 62.388 85.8061C64.116 88.7695 67.3267 90.1326 70.9453 90.1539C75.168 90.1789 78.2707 88.9685 80.972 86.1274C81.4933 85.7873 81.9547 85.4003 82.324 84.9362L82.6307 84.7977L82.5893 85.0419C82 86.1883 81.1387 87.1575 80.164 87.9779C80.3693 87.9941 80.5867 88.0165 80.8147 88.0242C89.5813 87.3351 98.3333 86.1097 106.331 82.1789C112.841 78.9711 121.167 72.4097 122.46 64.6446C122.728 63.5805 122.931 62.5242 122.959 61.4326L123.163 61.5351C123.42 62.1727 123.548 62.8138 123.601 63.4727C125.379 64.0873 127.284 64.843 128.601 66.2154C128.452 64.3727 128.155 62.4061 127.404 60.7941C126.68 59.2086 125.369 58.343 123.936 57.5908C123.483 57.0966 122.997 56.6575 122.432 56.3633H122.512C123.676 56.7618 125.204 57.207 126.377 57.9883C127.971 58.3217 130.011 57.9362 131.4 57.207Z" fill="#F79740"/>
<path d="M89.6454 18.2131C89.7174 17.9051 89.5147 17.5064 89.1454 17.6878C83.5481 20.3091 82.5054 26.7118 81.112 32.2144C80.5094 27.8704 81.7827 23.5371 82.7774 19.2731C82.8827 18.7944 82.384 18.4971 82.0534 18.8971C77.5814 24.2398 76.9454 31.0011 76.016 37.6211C74.68 32.2638 75.2147 26.6771 76.276 21.3024C76.7054 20.9224 76.1947 20.3611 75.6947 20.6678C74.1214 21.6744 73.5507 23.2918 72.812 24.9158C72.16 26.3104 71.6187 27.7238 71.2014 29.1584C71.1614 25.8318 71.808 22.5144 72.652 19.2411C72.7654 18.7958 72.224 18.6158 71.904 18.8118C68.3374 21.1491 66.9734 25.6664 66.3014 29.8731C66.068 28.1664 65.9627 26.4398 66.0614 24.7784C66.196 22.4691 67.1494 20.3611 67.2907 18.0784C67.3347 17.5238 66.5507 17.6664 66.328 17.9304C63.8067 21.0384 63.2294 24.8011 62.3054 28.5238C61.208 25.1891 61.1267 21.6998 62.068 18.2651C62.1067 18.1171 62.068 17.9958 61.988 17.9131C61.9787 17.6224 61.7494 17.3784 61.4107 17.6064C58.596 19.3371 58.2627 22.7851 57.612 25.8891C57.4947 22.0824 58.096 18.4144 59.392 14.9371C65.1587 12.7478 71.2614 11.8371 77.4267 11.9611C82.8547 12.0691 88.3814 13.0731 93.5947 14.6464C90.1907 18.9571 89.4814 24.6238 88.1867 29.9104C87.3987 25.9624 88.8667 22.1558 89.6454 18.2131Z" fill="#BE5E1E"/>
<path d="M114.914 66.3397C113.268 64.5612 111.148 63.284 108.824 62.6106C107.6 62.2689 106.252 61.8653 104.971 61.9569C104.186 62.0038 103.414 62.1278 102.636 62.209C106.434 60.5064 111.752 61.8481 115.394 62.8132C115.902 62.9465 115.924 62.1569 115.62 61.9304C111.107 58.6116 106.132 56.8236 100.766 56.0773C102.786 55.8773 104.835 55.9757 106.863 56.3252C109.04 56.684 111.066 57.6356 113.268 57.8814C113.827 57.9413 113.827 57.1612 113.458 56.933L113.443 56.9225C110.743 53.7585 107.472 50.4705 103.487 49.0745C109.146 48.9438 114.327 50.4598 118.835 54.4721C119.22 54.8236 119.624 54.1022 119.488 53.7585C118.351 50.7038 115.62 48.6332 113.186 46.6078C110.883 44.6745 108.339 43.4278 105.602 42.4118C108.586 42.1358 111.806 43.3398 114.394 44.6171C117.971 46.4091 120.606 49.3345 123.351 52.1877C123.742 52.5945 124.284 51.9918 124.094 51.5492C122.696 48.4798 121.028 45.4852 118.803 42.9332C117.304 41.2292 115.74 40.1252 114.028 39.0652C116.22 39.7398 118.291 40.8465 120.016 42.3638C121.508 43.6905 122.579 45.2345 123.647 46.8158C124.359 49.9985 125.163 53.0678 128.011 55.373C128.847 56.0612 130.396 56.8533 131.495 56.7782L131.838 56.7465L131.72 56.8626C131.636 56.9866 131.518 57.096 131.4 57.2064C130.011 57.9356 127.971 58.321 126.378 57.9877C125.204 57.2064 123.676 56.7612 122.512 56.3626H122.432C122.998 56.6569 123.483 57.096 123.936 57.5902C125.37 58.3424 126.68 59.208 127.404 60.7934C128.155 62.4054 128.452 64.3721 128.602 66.2148C127.284 64.8424 125.379 64.0866 123.602 63.4721C123.548 62.8132 123.42 62.1721 123.163 61.5345L122.959 61.432C122.931 62.5236 122.728 63.5798 122.46 64.644C121.95 67.6997 120.334 70.5798 118.178 73.1465C117.872 70.6372 116.611 68.1689 114.914 66.3397Z" fill="#BE5E1E"/>
<path d="M26.032 48.994C26.4267 48.2167 26.8627 47.478 27.2933 46.7487C26.7053 47.334 26.1773 47.9033 25.7187 48.4807L25.5387 48.442C23.5987 48.8407 21.908 49.6487 20.3613 50.818C20.8667 48.8407 21.7293 46.842 23 45.2833C23.6667 44.466 24.572 43.8167 25.5 43.2313C25.672 43.0007 25.8627 42.77 26.0573 42.546C25.452 42.8687 24.8307 43.1887 24.264 43.5713L24.2173 43.5473C21.7053 42.6833 20.4653 41.0207 20.784 38.4873C23.7867 41.4447 29.0907 39.8393 32.204 37.0233C35.2627 35.7673 38.272 34.0153 41.44 34.134C37.7667 34.8793 33.7147 36.614 31.9227 39.606C31.7653 39.8927 31.9 40.5807 32.3467 40.4233C35.724 39.2713 42.6387 37.9367 46.188 40.4113C41.0133 40.382 35.4827 41.4993 32.3667 45.9633C32.1507 46.2887 32.4507 47.0287 32.8827 46.7287C34.4187 45.69 36.14 45.33 37.908 45.266C36.036 45.9793 34.2827 46.9887 33.2533 48.786C33.088 49.0753 33.2147 49.7113 33.6733 49.594C38.192 48.442 43.0413 47.286 47.436 49.026C42.0387 49.594 37.084 52.3328 33.98 56.9339C31.6973 60.326 30.172 64.5072 30.3667 68.5781C29.864 67.2115 29.4507 65.814 29.148 64.3729C28.6187 61.8405 28.6147 59.5457 29.0653 57.3515C29.148 55.5807 29.62 53.8875 30.352 52.3115C30.1453 52.5911 29.9533 52.8577 29.7667 53.1567C27.1093 54.002 25.156 55.9405 24.0653 58.3765C24.0213 56.6276 23.912 54.9208 24.2453 53.1301C24.5507 51.454 25.2 50.198 26.032 48.994Z" fill="#BE5E1E"/>
<path d="M51.3295 18.0098C51.3295 18.0071 51.3295 18.0044 51.3281 18.0031C52.0641 17.5471 52.8135 17.1218 53.5655 16.7271C52.8148 17.1258 52.0681 17.5564 51.3295 18.0098Z" fill="#181516"/>
<path d="M51.328 18.002C51.3027 17.8606 51.232 17.722 51.1027 17.622C45.6973 14.0606 38.6893 9.95529 31.852 9.95529C30.6107 9.95529 29.376 10.0913 28.1573 10.3886C27.46 10.554 26.924 10.8326 26.5 11.1926C26.5587 10.534 26.624 9.87929 26.72 9.21929C26.8613 8.31662 27.4427 8.07129 28.156 8.07129C28.8547 8.07129 29.6827 8.30596 30.352 8.38862C35.9907 9.05796 41.64 10.634 46.964 12.598C48.86 13.298 50.7667 14.0806 52.5587 15.0246C53.1693 15.35 53.9867 15.9566 54.7613 16.122C54.3627 16.3126 53.964 16.514 53.5653 16.726C52.8133 17.1206 52.064 17.546 51.328 18.002Z" fill="#CB8138"/>
<path d="M73.0072 29.9668C72.8965 29.5308 72.7472 29.1068 72.5499 28.6961C72.3565 28.2881 72.0632 27.9041 71.7285 27.5401C71.8858 27.1015 72.0539 26.6641 72.2339 26.2295C72.2272 26.2895 72.2352 26.3521 72.2605 26.4174C72.7312 27.6521 72.9699 28.7948 73.0072 29.9668ZM74.3432 27.7388C74.0205 27.1521 73.6525 26.5961 73.2299 26.0481L73.1539 25.9628C73.0699 25.8508 72.9405 25.8028 72.8072 25.8028C72.6205 25.8028 72.4219 25.8948 72.3139 26.0375C72.4725 25.6628 72.6378 25.2895 72.8125 24.9161C73.5512 23.2921 74.1218 21.6748 75.6952 20.6681C75.7965 20.6068 75.8965 20.5801 75.9899 20.5801C76.3619 20.5801 76.6205 21.0001 76.2765 21.3028C76.2645 21.3628 76.2525 21.4228 76.2419 21.4828C76.0459 21.6815 75.9592 22.0721 76.0925 22.2681C76.0325 22.5961 75.9739 22.9241 75.9179 23.2535C75.6085 23.2841 75.3005 23.3188 74.9912 23.3575C74.5805 23.3961 74.4472 23.9721 74.6805 24.2748C75.0232 24.7161 75.3032 25.1801 75.5205 25.6588C75.0952 26.3161 74.7018 27.0108 74.3432 27.7388Z" fill="#F57F32"/>
<path d="M44.2522 24.9082C44.2388 24.9082 44.2268 24.9069 44.2148 24.9029C44.2162 24.9015 44.2162 24.9002 44.2175 24.8989L44.3935 24.8269C44.3562 24.8829 44.3002 24.9082 44.2522 24.9082Z" fill="#1C1514"/>
<path d="M41.9375 28.9824C42.5482 27.5411 43.3255 26.1944 44.2162 24.9037C44.2282 24.9077 44.2402 24.9091 44.2535 24.9091C44.3015 24.9091 44.3575 24.8838 44.3948 24.8278C47.2188 20.3011 53.5882 17.2677 58.3362 15.3344C64.0748 12.9971 70.1282 11.9491 76.2855 11.9491C76.6655 11.9491 77.0468 11.9531 77.4282 11.9611C77.0628 11.9531 76.6975 11.9491 76.3322 11.9491C70.5402 11.9491 64.8175 12.8784 59.3935 14.9371C58.9002 16.2624 58.5068 17.6158 58.2162 18.9944C51.7055 20.1011 45.8202 23.6691 41.9375 28.9824ZM71.2642 27.0651C70.8122 26.6278 70.3322 26.2144 69.9388 25.8131C69.2775 25.1478 68.6015 24.5224 67.8868 23.9424C67.8962 23.9237 67.9042 23.9051 67.9122 23.8851C68.4255 23.9451 68.9202 24.0838 69.3842 24.3318C69.4455 24.3664 69.5215 24.3824 69.6028 24.3824C69.9948 24.3824 70.5042 24.0131 70.1202 23.7091L70.0335 23.6478L70.0162 23.6357C69.5228 23.2557 69.0242 22.9211 68.5175 22.6278C69.3442 21.1024 70.4388 19.7731 71.9055 18.8118C71.9922 18.7584 72.0962 18.7331 72.1988 18.7331C72.4708 18.7331 72.7362 18.9157 72.6535 19.2411C71.9868 21.8264 71.4428 24.4411 71.2642 27.0651ZM109.487 23.9184C107.679 23.2464 106 21.8571 104.233 21.0757C101.912 20.0611 99.4988 19.2157 97.0855 18.4851C95.3762 17.9704 93.6455 17.5784 91.8988 17.2891C92.3802 16.3651 92.9375 15.4811 93.5962 14.6464C93.1802 14.5211 92.7602 14.3984 92.3402 14.2798C93.5188 14.6118 94.6842 14.9718 95.8308 15.3598C100.987 17.1198 104.971 20.2477 109.275 23.2744C109.367 23.4811 109.447 23.6957 109.487 23.9184ZM66.6015 21.7171C65.8908 21.4464 65.1668 21.2411 64.4335 21.0891C64.9162 19.9837 65.5242 18.9238 66.3295 17.9304C66.4402 17.7984 66.6908 17.6971 66.9082 17.6971C67.1282 17.6971 67.3148 17.8011 67.2922 18.0784C67.2148 19.3238 66.8975 20.5157 66.6015 21.7171ZM94.7135 21.0504C93.8922 20.7917 93.1042 20.5157 92.3268 20.2517C91.8628 19.9811 91.3842 19.7424 90.8935 19.5384C91.0082 19.2411 91.1268 18.9477 91.2522 18.6557C92.7148 19.1624 93.9748 19.9184 94.7135 21.0504ZM61.6522 20.1771C61.0362 19.9838 60.4055 19.8477 59.7628 19.7717C60.1668 19.6437 60.5855 19.5504 61.0282 19.5104C61.6722 19.4384 61.5602 18.6784 60.9615 18.6784C60.9428 18.6784 60.9242 18.6798 60.9055 18.6811C60.6268 18.6984 60.3495 18.7211 60.0722 18.7478C60.4442 18.3158 60.8842 17.9304 61.4122 17.6064C61.5055 17.5437 61.5908 17.5171 61.6655 17.5171C61.8602 17.5171 61.9828 17.7024 61.9895 17.9131C62.0695 17.9958 62.1082 18.1171 62.0695 18.2651C61.8948 18.9011 61.7562 19.5384 61.6522 20.1771ZM81.6135 19.4451C81.7575 19.2598 81.9042 19.0784 82.0548 18.8971C82.1628 18.7664 82.2882 18.7104 82.4055 18.7104C82.6362 18.7104 82.8322 18.9291 82.7855 19.2318C82.3935 19.2918 82.0028 19.3624 81.6135 19.4451ZM89.4708 19.0557C88.8015 18.8797 88.1148 18.7651 87.4108 18.7184C87.7628 18.4584 88.1375 18.2171 88.5388 17.9971C88.9108 18.0571 89.2815 18.1264 89.6482 18.2077C89.6468 18.2104 89.6468 18.2118 89.6468 18.2131C89.5908 18.4944 89.5322 18.7757 89.4708 19.0557Z" fill="#F57F32"/>
<path d="M71.7282 27.5391C71.5802 27.3777 71.4228 27.2191 71.2628 27.0644C71.4415 24.4404 71.9855 21.8257 72.6522 19.2404C72.7348 18.9151 72.4695 18.7324 72.1975 18.7324C72.0948 18.7324 71.9909 18.7577 71.9042 18.8111C70.4375 19.7724 69.3428 21.1017 68.5162 22.6271C67.8882 22.2631 67.2495 21.9631 66.6002 21.7164C66.8962 20.5151 67.2135 19.3231 67.2909 18.0777C67.3135 17.8004 67.1269 17.6964 66.9069 17.6964C66.6895 17.6964 66.4388 17.7977 66.3282 17.9297C65.5228 18.9231 64.9148 19.9831 64.4322 21.0884C64.1002 21.0191 63.7668 20.9604 63.4322 20.9124C62.8548 20.6151 62.2602 20.3684 61.6508 20.1764C61.7548 19.5377 61.8935 18.9004 62.0682 18.2644C62.1068 18.1164 62.0682 17.9951 61.9882 17.9124C61.9815 17.7017 61.8588 17.5164 61.6642 17.5164C61.5895 17.5164 61.5042 17.5431 61.4108 17.6057C60.8828 17.9297 60.4428 18.3151 60.0708 18.7471C59.4468 18.8071 58.8282 18.8897 58.2148 18.9937C58.5055 17.6151 58.8988 16.2617 59.3922 14.9364C64.8162 12.8777 70.5388 11.9484 76.3308 11.9484C76.6962 11.9484 77.0615 11.9524 77.4268 11.9604C82.4188 12.0684 87.4909 12.9177 92.3389 14.2791C92.7589 14.3977 93.1788 14.5204 93.5948 14.6457C92.9362 15.4804 92.3788 16.3644 91.8975 17.2884C89.5202 16.8937 87.1148 16.6884 84.7002 16.6191C84.2602 16.6017 83.8322 16.6017 83.4495 16.6017C83.4455 16.6017 83.4402 16.6017 83.4348 16.6017C82.9028 16.6017 82.6349 17.6057 83.2162 17.6111C83.7909 17.6111 84.3682 17.6337 84.9402 17.6577L85.2122 17.6657C85.4402 17.6764 85.6735 17.7044 85.9095 17.7044C86.7535 17.7617 87.6482 17.8524 88.5375 17.9964C88.1362 18.2164 87.7615 18.4577 87.4095 18.7177C87.3802 18.7164 87.3495 18.7137 87.3202 18.7124C87.1175 18.7017 86.9175 18.6951 86.7175 18.6951C85.7148 18.6951 84.7309 18.8351 83.7775 19.1017C83.4455 19.1364 83.1148 19.1804 82.7842 19.2311C82.8308 18.9284 82.6349 18.7097 82.4042 18.7097C82.2869 18.7097 82.1615 18.7657 82.0535 18.8964C81.9029 19.0777 81.7562 19.2591 81.6122 19.4444C79.7668 19.8337 77.9788 20.4751 76.3442 21.4017C76.3082 21.4217 76.2722 21.4497 76.2415 21.4817C76.2522 21.4217 76.2642 21.3617 76.2762 21.3017C76.6202 20.9991 76.3615 20.5791 75.9895 20.5791C75.8962 20.5791 75.7962 20.6057 75.6948 20.6671C74.1215 21.6737 73.5508 23.2911 72.8122 24.9151C72.6375 25.2884 72.4722 25.6617 72.3135 26.0364C72.2708 26.0937 72.2428 26.1577 72.2335 26.2284C72.0535 26.6631 71.8855 27.1004 71.7282 27.5391ZM67.8855 23.9417C67.8575 23.9191 67.8295 23.8964 67.8015 23.8737C67.8375 23.8764 67.8748 23.8804 67.9108 23.8844C67.9028 23.9044 67.8948 23.9231 67.8855 23.9417ZM75.9175 23.2524C75.9735 22.9231 76.0322 22.5951 76.0922 22.2671C76.1402 22.3391 76.2188 22.3831 76.3322 22.3831C76.3642 22.3831 76.3988 22.3804 76.4362 22.3724C76.9748 22.2671 77.7028 22.1577 78.5255 22.0831C78.1628 22.4111 77.8095 22.7617 77.4682 23.1311C76.9522 23.1604 76.4348 23.2017 75.9175 23.2524ZM90.8922 19.5377C90.4295 19.3457 89.9535 19.1844 89.4695 19.0551C89.5308 18.7751 89.5895 18.4937 89.6455 18.2124C89.6455 18.2111 89.6455 18.2097 89.6469 18.2071C90.1975 18.3297 90.7362 18.4764 91.2508 18.6551C91.1255 18.9471 91.0068 19.2404 90.8922 19.5377Z" fill="#BE511E"/>
<path d="M71.0711 90.1523C71.0298 90.1523 70.9871 90.1523 70.9458 90.1523C67.3271 90.131 64.1164 88.7679 62.3884 85.8045C62.0471 85.4226 61.7164 85.0013 61.4298 84.5695C61.7698 85.5763 62.2591 86.4841 62.8791 87.2378C62.1804 87.3163 61.4511 87.3534 60.7124 87.3534C59.1138 87.3534 57.4644 87.1789 55.9538 86.8711L55.8631 86.831C47.9138 84.5591 40.8151 82.1591 34.9471 76.0054C31.8591 72.7575 30.0484 68.719 29.1484 64.3711C29.4511 65.8122 29.8644 67.2097 30.3671 68.5763C30.3058 67.2815 30.4178 65.9763 30.6724 64.6882C31.3764 69.083 33.1178 73.4721 36.6164 76.5283C36.6471 76.5559 36.6804 76.5669 36.7138 76.5669C36.8391 76.5669 36.9551 76.4013 36.8604 76.2747C33.7084 72.3403 31.7858 68.0097 30.9884 63.3559C31.2631 62.3602 31.6178 61.3815 32.0391 60.4335C32.1511 63.3226 32.8684 66.2893 34.0804 69.0961C36.1844 73.9174 39.7778 77.843 44.4071 80.3471C49.8471 83.3106 55.4724 83.6695 61.3791 83.6695C61.8564 83.6695 62.3364 83.6679 62.8178 83.6643C64.5164 86.9201 68.5924 88.4815 72.2938 88.4815C72.3151 88.4815 72.3378 88.4815 72.3591 88.4815C77.1404 88.4643 81.0044 85.0534 83.1698 80.9747C83.2271 80.983 83.2858 80.9925 83.3444 81.0002C83.6084 82.0799 83.5831 83.2283 83.6324 84.4321C83.6324 84.6925 83.9404 84.9215 84.1738 84.9215C84.1938 84.9215 84.2111 84.9215 84.2311 84.9215C87.0951 84.9215 89.8245 83.9414 92.5818 83.2925C95.4911 82.5925 98.3338 81.5654 101.13 80.5029C106.168 78.5773 111.244 76.5283 115.298 72.8679C116.11 72.1362 116.844 71.3201 117.486 70.4403C117.827 71.3174 118.066 72.2294 118.178 73.1455C120.334 70.5789 121.95 67.6987 122.46 64.643C121.167 72.4081 112.842 78.9695 106.331 82.1773C98.3338 86.1081 89.5818 87.3335 80.8151 88.0226C80.5871 88.0149 80.3698 87.9925 80.1644 87.9763C81.1391 87.1559 82.0004 86.1867 82.5898 85.0403L82.6311 84.7961L82.3244 84.9346C81.9551 85.3987 81.4938 85.7857 80.9724 86.1258C78.2978 88.9378 75.2311 90.1523 71.0711 90.1523ZM115.34 74.9163C113.747 76.4097 110.743 77.7403 108.323 78.9002C105.806 80.1138 103.262 81.2439 100.655 82.2163C100.486 82.2721 100.486 82.519 100.646 82.519C100.663 82.519 100.682 82.5163 100.702 82.5106C103.69 81.6174 106.475 80.2977 109.247 78.8773C111.274 77.843 113.791 76.607 115.4 74.9721L115.34 74.9163Z" fill="#F57F32"/>
<path d="M128.011 55.3723C126.701 54.3124 125.824 53.0895 125.188 51.7697C125.824 53.0895 126.703 54.3124 128.011 55.3723ZM119.049 54.5656C118.98 54.5656 118.907 54.538 118.835 54.4713C118.573 54.2389 118.309 54.0151 118.044 53.7989C118.507 53.9405 118.965 54.0989 119.417 54.2807C119.331 54.4405 119.197 54.5656 119.049 54.5656ZM123.296 52.1285C122.608 51.4137 121.928 50.6964 121.237 49.9924C120.68 49.2057 120.06 48.4524 119.488 47.7137C118.835 46.8511 118.159 46.0071 117.445 45.1964C118.105 45.5631 118.727 45.9617 119.367 46.4271C119.453 46.4911 119.559 46.5217 119.668 46.5217C119.941 46.5217 120.232 46.3324 120.257 46.0391C120.292 45.6151 120.303 45.2057 120.288 44.8071C121.059 45.8751 121.756 46.9977 122.395 48.1511C122.603 49.5284 122.845 50.8991 123.296 52.1285Z" fill="#F57F32"/>
<path d="M33.5657 49.6074C33.1951 49.6074 33.1018 49.0501 33.2524 48.7848C33.5951 48.1848 34.0191 47.6741 34.5018 47.2314C35.9658 46.6234 37.4791 46.2034 39.0564 46.1888C37.7351 47.0341 36.6151 48.0128 35.6858 49.0941C35.0084 49.2541 34.3378 49.4234 33.6724 49.5928C33.6351 49.6034 33.5991 49.6074 33.5657 49.6074Z" fill="#F57F32"/>
<path d="M126.277 3.30273C125.993 2.8254 125.78 2.41207 125.504 2.12674C125.783 2.40807 125.999 2.82007 126.277 3.30273Z" fill="#1C1514"/>
<path d="M123.672 46.9277C123.662 46.8904 123.654 46.8531 123.646 46.8157C123.12 46.0357 122.592 45.2651 122.013 44.5251C121.833 43.9344 121.618 43.3464 121.344 42.7611L121.297 42.8131C121.457 43.2331 121.59 43.6771 121.705 44.1384C121.196 43.5171 120.642 42.9224 120.016 42.3637C119.95 42.3064 119.884 42.2477 119.816 42.1917C118.582 38.5104 115.161 35.9917 111.953 33.5051C113.54 33.7277 115.053 34.3104 116.358 35.2664C117.426 36.0317 118.184 37.2237 119.22 38.0611C119.544 38.3224 119.888 38.4291 120.232 38.4291C121.032 38.4291 121.836 37.8491 122.404 37.2837C125.822 33.9424 126.562 27.4077 127.188 22.9691C128.048 16.9384 128.869 7.63973 124.625 2.5744C124.386 2.27706 124.11 2.0344 123.834 1.8144C124.092 1.75574 124.312 1.72773 124.506 1.72773C124.952 1.72773 125.253 1.8744 125.504 2.1264C125.78 2.41173 125.993 2.82506 126.277 3.30239C127.606 5.61039 128.278 8.6504 128.905 11.1984C129.534 13.7544 129.737 16.3931 129.737 19.0077C129.737 19.4637 129.732 19.9184 129.721 20.3717C129.6 25.5117 128.462 30.5184 127.422 35.5397C126.466 38.2357 124.956 40.7704 123.536 43.2197C123.137 42.1184 122.618 41.0837 122.002 40.0397C121.977 39.9891 121.938 39.9691 121.896 39.9691C121.797 39.9691 121.682 40.0837 121.681 40.1931C121.681 40.2131 121.685 40.2317 121.693 40.2491C122.737 42.3797 123.17 44.6824 123.672 46.9277Z" fill="#F57F32"/>
<path d="M32.0009 40.3418C31.9863 40.3258 31.9729 40.3085 31.9609 40.2898C32.0356 40.2538 32.1089 40.2178 32.1823 40.1805C32.1223 40.2338 32.0609 40.2885 32.0009 40.3418Z" fill="#F57F32"/>
<path d="M23.5259 39.9297C22.5085 39.7204 21.5672 39.259 20.7832 38.487C21.5765 39.2617 22.5285 39.7137 23.5539 39.9177C23.5445 39.9217 23.5352 39.9257 23.5259 39.9297Z" fill="#1C1514"/>
<path d="M118.177 73.1465C118.065 72.2304 117.827 71.3184 117.485 70.4413C119.533 67.633 120.645 64.1664 120.397 60.6558C120.228 58.4757 119.324 56.532 118.029 54.8481C120.839 57.6825 122.308 61.5158 121.344 65.6653C121.331 65.7476 121.377 65.7866 121.433 65.7866C121.483 65.7866 121.537 65.7558 121.564 65.6986C123.769 60.084 120.848 55.7746 117.025 53.5148C117.368 53.6022 117.707 53.696 118.044 53.7997C118.309 54.0158 118.573 54.2397 118.835 54.4721C118.907 54.5388 118.98 54.5664 119.049 54.5664C119.197 54.5664 119.331 54.4413 119.417 54.2814C120.373 54.6637 121.303 55.1465 122.199 55.7773C122.264 55.821 122.335 55.8397 122.405 55.8397C122.679 55.8397 122.961 55.5653 122.991 55.3304C123.248 53.3116 122.368 51.5838 121.237 49.9932C121.928 50.6972 122.608 51.4145 123.296 52.1293C123.896 53.7678 124.865 55.1558 126.612 55.9757C126.639 55.9877 126.667 55.9945 126.696 55.9945C126.899 55.9945 127.115 55.7148 126.929 55.5721C125.265 54.144 123.455 50.3092 123.177 49.2972C122.724 47.6838 122.492 46.0932 122.013 44.5252C122.592 45.2652 123.12 46.0358 123.647 46.8158C123.655 46.8532 123.663 46.8905 123.672 46.9278C124.045 48.6065 124.457 50.2532 125.188 51.7705C125.824 53.0902 126.701 54.3132 128.011 55.373C128.031 55.3902 128.052 55.4064 128.073 55.4236C128.076 55.4268 128.079 55.4278 128.081 55.4304C128.887 56.0678 130.271 56.7721 131.321 56.7825C131.331 56.784 131.339 56.784 131.348 56.784C131.397 56.784 131.447 56.7814 131.495 56.7782L131.837 56.7465L131.72 56.8626C131.636 56.9866 131.517 57.096 131.4 57.2064C131.392 57.2116 131.384 57.2158 131.375 57.22C130.333 57.7601 128.935 58.108 127.633 58.109C127.631 58.109 127.629 58.109 127.628 58.109H127.627C127.219 58.109 126.82 58.0746 126.444 58.0012C126.437 57.9997 126.431 57.9986 126.424 57.997C126.408 57.9945 126.393 57.9918 126.377 57.9877C125.204 57.2064 123.676 56.7612 122.512 56.3626H122.432C122.997 56.6569 123.483 57.096 123.936 57.5902C125.369 58.3424 126.68 59.208 127.404 60.7934C128.155 62.4054 128.452 64.3721 128.601 66.2148C127.284 64.8424 125.379 64.0866 123.601 63.4721C123.548 62.8132 123.42 62.1721 123.163 61.5345L122.959 61.432C122.931 62.5236 122.728 63.5798 122.46 64.644C121.949 67.6997 120.333 70.5798 118.177 73.1465ZM122.395 48.1518C121.756 46.9985 121.059 45.8758 120.288 44.8078C120.253 43.8718 120.088 43.0025 119.816 42.1918C119.884 42.2478 119.951 42.3065 120.016 42.3638C120.643 42.9225 121.196 43.5172 121.705 44.1385C122.016 45.3918 122.188 46.7745 122.395 48.1518Z" fill="#BE511E"/>
<path d="M30.3667 68.5781C29.864 67.2115 29.4507 65.814 29.148 64.3729C28.8707 63.0473 28.7373 61.7875 28.7387 60.5713C28.7387 59.4661 28.8507 58.3968 29.0653 57.3515C29.148 55.5807 29.62 53.8875 30.352 52.3115C30.1453 52.5911 29.9533 52.8577 29.7667 53.1567C27.1093 54.002 25.156 55.9405 24.0653 58.3765C24.0453 57.5911 24.0133 56.814 24.012 56.0339C24.012 55.0765 24.0613 54.1167 24.2453 53.1301C24.5507 51.454 25.2 50.198 26.032 48.994C26.4267 48.2167 26.8627 47.478 27.2933 46.7487C26.7053 47.334 26.1773 47.9033 25.7187 48.4807L25.5387 48.442C23.5987 48.8407 21.908 49.6487 20.3613 50.818C20.8667 48.8407 21.7293 46.842 23 45.2833C23.6667 44.466 24.572 43.8167 25.5 43.2313C25.672 43.0007 25.8627 42.77 26.0573 42.546C25.452 42.8687 24.8307 43.1887 24.264 43.5713L24.2173 43.5473C21.9653 42.7727 20.736 41.3553 20.7347 39.246C20.7347 39.002 20.7507 38.75 20.784 38.4873C21.568 39.2593 22.5093 39.7207 23.5267 39.93C23.176 40.0913 23.3627 40.7087 23.6667 40.8673C24.7067 41.3967 25.7987 41.622 26.9027 41.6207C28.616 41.6207 30.3547 41.0793 31.9613 40.29C31.9733 40.3087 31.9867 40.326 32.0013 40.342C30.2427 41.89 28.2 43.1007 26.0573 44.154C25.6067 44.3833 25.9147 45.1433 26.364 45.1433C26.412 45.1433 26.464 45.134 26.5147 45.114C29.08 44.154 31.7173 42.894 34.4787 42.6473C31.5787 44.4087 29.16 46.7047 27.4893 49.7313C27.32 50.038 27.576 50.5833 27.936 50.5833C27.992 50.5833 28.0507 50.57 28.1107 50.5407C30.1733 49.5073 32.2827 48.154 34.5027 47.2327C34.02 47.6753 33.596 48.186 33.2533 48.786C33.1027 49.0513 33.196 49.6087 33.5667 49.6087C33.6 49.6087 33.636 49.6047 33.6733 49.594C34.3387 49.4247 35.0093 49.2553 35.6867 49.0953C32.9813 52.2405 31.8773 56.2577 32.0387 60.4353C31.6173 61.3833 31.2627 62.362 30.988 63.3577C30.5253 60.6577 30.44 57.85 30.7133 54.9489L30.5893 54.9687C30.208 57.7823 30.12 61.238 30.672 64.69C30.4173 65.9781 30.3053 67.2833 30.3667 68.5781ZM29.1827 46.07C26.6427 48.3033 24.604 51.142 24.284 54.5791C24.276 54.6687 24.3227 54.7047 24.3813 54.7047C24.4613 54.7047 24.5653 54.638 24.5853 54.5432C25.2173 51.2193 26.7787 48.4567 29.2173 46.1113L29.1827 46.07ZM26.2813 43.302C25.212 44.21 24.0213 44.9527 23.0387 45.962C22.1333 46.9073 21.52 48.162 21.0573 49.374C21.0053 49.5233 21.1013 49.6007 21.212 49.6007C21.2933 49.6007 21.3813 49.5593 21.4253 49.4727C22.1013 48.2607 22.6933 47.0287 23.6173 45.9633C24.4267 45.0233 25.4333 44.2313 26.3067 43.3407L26.2813 43.302Z" fill="#BE511E"/>
<path d="M122.483 14.4805C122.326 12.8272 121.862 11.3191 121.343 9.80715C114.451 10.3698 108.906 13.2898 103.951 17.9725C105.265 18.7551 106.53 19.6005 107.757 20.5165C108.145 20.8845 108.559 21.2591 108.97 21.6351C109.878 22.4498 110.595 23.4365 111.223 24.4765L111.051 24.4632C112.555 25.9818 113.966 27.5405 115.262 29.2312C116.169 30.4005 117.045 32.0205 118.237 32.9071C119.786 34.0338 120.857 33.2272 121.689 32.0485C121.945 30.9032 122.091 29.7485 122.309 28.5405C122.773 26.0218 123.145 23.4112 123.053 20.8485C122.982 18.7138 122.689 16.6032 122.483 14.4805Z" fill="#F57A74"/>
<path d="M38.1386 28.8369C39.0559 28.0809 40.0279 27.4303 41.0106 26.7303C42.0386 26.0116 43.3292 25.1889 44.4852 24.2502C45.1972 23.1422 46.0892 22.1009 47.1106 21.1556L47.2212 20.8836C44.7212 18.6156 42.3826 16.2796 39.2292 14.8836C36.8186 13.8169 34.3372 13.6289 31.8452 13.3943C30.7919 14.7636 31.1426 19.4356 31.2399 20.6409C31.5332 23.8743 32.3586 26.8609 33.6146 29.8023C33.7559 29.8476 33.8532 29.9463 33.9012 30.0649C34.8826 32.8876 37.1519 29.6423 38.1386 28.8369Z" fill="#F57A74"/>
<path d="M108.792 19.1315C110.039 21.8755 113.887 22.5714 116.379 21.0568C119.815 18.9741 121.722 14.0128 121.107 9.84078C116.504 10.2541 112.532 11.7275 108.907 14.0768C108.323 15.7675 108.106 17.6061 108.792 19.1315Z" fill="#F57A74"/>
<path d="M119.651 33.4473C119.227 33.4473 118.759 33.2873 118.237 32.9073C117.045 32.0206 116.169 30.4006 115.262 29.2313C113.966 27.5406 112.555 25.9819 111.051 24.4633L111.223 24.4766C110.595 23.4366 109.878 22.4499 108.97 21.6353C108.559 21.2593 108.145 20.8846 107.757 20.5166C106.53 19.6006 105.265 18.7553 103.951 17.9726C105.193 16.8139 106.453 15.7539 107.777 14.8206C107.471 16.3606 107.513 17.9473 108.022 19.4593C108.777 21.6819 111.258 22.8833 113.589 22.8833C114.215 22.8833 114.831 22.7966 115.399 22.6193C119.563 21.2939 121.905 16.6206 122.054 12.1153C122.247 12.8739 122.403 13.6553 122.483 14.4806C122.689 16.6033 122.982 18.7139 123.053 20.8486C123.062 21.1179 123.066 21.3886 123.066 21.6606C123.065 23.9606 122.723 26.2873 122.309 28.5406C122.091 29.7486 121.945 30.9033 121.689 32.0486C121.138 32.8299 120.482 33.4473 119.651 33.4473Z" fill="#F35D5A"/>
<path d="M39.2293 14.8828C37.832 14.2641 36.4106 13.9415 34.9786 13.7335C34.9666 13.7281 34.9573 13.7228 34.9453 13.7175C36.3906 13.9295 37.8213 14.2561 39.2293 14.8828Z" fill="#1B1314"/>
<path d="M35.0296 31.1973C34.587 31.1973 34.1883 30.8906 33.9016 30.0653C33.8536 29.9466 33.7563 29.8479 33.615 29.8026C33.2083 28.8373 32.8643 27.8706 32.543 26.8999C33.5216 27.6279 34.6643 28.0373 35.7603 28.0373C37.5776 28.0373 39.2643 26.9133 39.855 24.2639C40.7403 20.2626 38.631 15.5399 34.979 13.7346C36.411 13.9426 37.8323 14.2653 39.2296 14.8839C42.383 16.2799 44.7216 18.6159 47.2216 20.8839L47.111 21.1559C46.0896 22.1013 45.1976 23.1426 44.4856 24.2506C43.3296 25.1893 42.039 26.0119 41.011 26.7306C40.0283 27.4306 39.0563 28.0813 38.139 28.8373C37.4416 29.4066 36.1016 31.1973 35.0296 31.1973Z" fill="#F35D5A"/>
<path d="M113.244 65.6035C113.199 65.6035 113.152 65.5967 113.107 65.5795C109.876 64.2874 106.703 63.0222 103.428 62.1155C103.94 62.0514 104.452 61.9874 104.969 61.9566C105.095 61.9478 105.22 61.9436 105.345 61.9436C106.513 61.9436 107.717 62.3019 108.823 62.6103C110.637 63.1352 112.327 64.029 113.763 65.242C113.752 65.2598 113.74 65.277 113.727 65.2956C113.628 65.4582 113.441 65.6035 113.244 65.6035ZM103.088 62.0222C100.685 61.377 98.2268 60.929 95.6468 60.8087C95.2708 60.7931 94.8948 60.7863 94.5161 60.7863C91.9081 60.7863 89.2801 61.1608 86.7721 61.841C86.2001 61.3836 85.5921 60.9264 84.9641 60.5342C83.9174 60.141 82.8828 59.8327 81.8854 59.6727C81.5321 59.6128 81.1841 59.5863 80.8401 59.5863C79.5614 59.5863 78.3334 59.9503 77.1014 60.3128C76.6468 60.4478 76.1921 60.5806 75.7348 60.6967C77.2281 59.2436 77.3308 57.6384 75.0094 56.8394C74.2481 56.5822 73.5161 56.3863 72.8134 56.2822C72.0468 56.1232 71.2721 56.0384 70.4974 56.0384C69.6001 56.0384 68.7014 56.1514 67.8148 56.3983C67.1654 56.5822 66.4001 56.9051 65.8548 57.3743C64.8054 58.1144 64.5868 59.1264 65.8334 60.6931C65.9081 60.7888 65.9828 60.8795 66.0574 60.9675C65.9734 60.941 65.8868 60.9128 65.8014 60.8822C64.8134 60.5342 63.8001 60.2967 62.7734 60.066C61.9948 59.8718 61.2281 59.7718 60.4801 59.753C59.5094 59.9008 58.5881 60.2222 57.7374 60.6822C55.7148 59.342 53.5428 58.217 51.3534 57.4598C48.7281 56.5634 46.1654 56.4836 43.4308 56.4196C42.7534 56.4051 42.0721 56.3836 41.3948 56.3836C39.4508 56.3836 37.5281 56.5598 35.7774 57.5727C35.7201 57.6076 35.6574 57.6232 35.5988 57.6232C35.4548 57.6232 35.3401 57.5207 35.4134 57.318C36.9788 53.2718 42.4588 53.1368 46.2148 52.8967C45.8734 51.7264 45.5668 50.5488 45.3094 49.3662C46.0081 49.2142 46.7174 49.1008 47.4348 49.0248C46.6694 48.7222 45.8921 48.5075 45.1028 48.3649C44.5894 45.7155 44.3388 43.0568 44.5001 40.4435C44.7308 40.4328 44.9614 40.4248 45.1921 40.4182C46.1068 49.4102 51.8428 56.3248 58.7308 56.3248C58.7628 56.3248 58.7974 56.3248 58.8308 56.3248C65.4321 56.2503 70.8734 49.8422 72.0081 41.4129C72.9334 50.1742 78.2894 56.9915 85.1441 57.3743C85.3521 57.3863 85.5574 57.3915 85.7641 57.3915C93.4241 57.3915 99.9814 49.2475 100.569 38.8582C101.016 30.8008 97.7521 23.6888 92.7161 20.4902C93.6388 20.8222 94.5348 21.3182 95.3868 22.0035C100.377 26.0435 102.589 33.0062 103.32 39.1782C103.711 42.4342 103.851 45.6382 103.164 48.8622C102.944 49.8742 102.483 51.7931 101.673 52.8478C105.099 53.2718 108.683 53.9222 111.585 55.877C112 56.1555 112.963 56.7144 113.708 57.3727C113.737 57.6275 113.621 57.8847 113.325 57.8847C113.307 57.8847 113.287 57.8836 113.267 57.8811C111.064 57.6352 109.039 56.6836 106.861 56.3248C105.529 56.0956 104.189 55.9743 102.855 55.9743C102.156 55.9743 101.457 56.0076 100.764 56.077C103.317 56.4316 105.783 57.0232 108.151 57.9019C107.949 57.8754 107.747 57.854 107.54 57.8384C107.236 57.8155 106.933 57.806 106.632 57.806C105.488 57.806 104.359 57.9446 103.217 58.0686C105.873 58.63 108.427 59.8275 110.659 61.3008C110.885 61.4488 111.229 61.6566 111.611 61.9076C110.115 61.6103 108.54 61.3931 107.011 61.3931C105.633 61.3931 104.293 61.5686 103.088 62.0222ZM45.1388 39.8262C44.9534 39.7435 44.7628 39.6688 44.5668 39.6008C44.6708 38.5235 44.8481 37.4555 45.1108 36.4008C45.0761 36.9755 45.0601 37.5595 45.0668 38.1489C45.0721 38.7142 45.0961 39.2742 45.1388 39.8262Z" fill="#F57F32"/>
<path d="M113.764 65.2422C112.328 64.0291 110.639 63.1354 108.824 62.6104C107.719 62.302 106.515 61.9438 105.347 61.9438C105.222 61.9438 105.096 61.9479 104.971 61.9567C104.454 61.9875 103.942 62.0515 103.43 62.1156C103.316 62.0838 103.203 62.0531 103.09 62.0223C104.295 61.5687 105.635 61.3933 107.012 61.3933C108.542 61.3933 110.116 61.6104 111.612 61.9078C112.871 62.7343 114.535 64.0302 113.764 65.2422ZM114.219 59.6438C114.184 59.6438 114.148 59.6386 114.114 59.6266C112.087 59.0505 110.256 58.1865 108.152 57.9021C105.784 57.0234 103.319 56.4318 100.766 56.0771C101.459 56.0078 102.158 55.9744 102.856 55.9744C104.191 55.9744 105.531 56.0958 106.863 56.325C109.04 56.6838 111.066 57.6354 113.268 57.8813C113.288 57.8838 113.308 57.8848 113.327 57.8848C113.623 57.8848 113.739 57.6277 113.71 57.3729C114.446 58.0209 114.97 58.7651 114.552 59.4277C114.48 59.5531 114.355 59.6438 114.219 59.6438Z" fill="#BE511E"/>
<path d="M45.3093 49.3672C45.236 49.0339 45.168 48.6992 45.1027 48.3659C45.892 48.5085 46.6693 48.7232 47.4347 49.0259C46.7173 49.1019 46.008 49.2152 45.3093 49.3672ZM44.5 40.4445C44.5173 40.1632 44.54 39.8818 44.5667 39.6018C44.7627 39.6698 44.9533 39.7445 45.1387 39.8272C45.1547 40.0259 45.172 40.2232 45.192 40.4192C44.9613 40.4258 44.7307 40.4339 44.5 40.4445Z" fill="#BE511E"/>
<path d="M72.0763 35.3984C71.7376 32.3358 70.839 29.5211 69.5256 27.1451C70.1243 27.6291 70.6816 28.1664 71.2016 28.7558C71.2016 28.8891 71.2016 29.0238 71.203 29.1584C71.2323 29.0584 71.2616 28.9584 71.2923 28.8584C71.9096 29.5704 72.4696 30.3544 72.9736 31.2038C72.5656 32.5358 72.2616 33.9398 72.0763 35.3984ZM72.9776 31.1931C73.011 30.7771 73.0216 30.3704 73.0083 29.9664C73.0656 30.1918 73.1123 30.4198 73.151 30.6504C73.091 30.8304 73.0336 31.0104 72.9776 31.1931ZM66.315 22.9651C66.0896 22.7558 65.8616 22.5544 65.627 22.3638C65.6656 22.3864 65.7043 22.4091 65.743 22.4318C65.9483 22.5558 66.1496 22.6824 66.347 22.8118C66.3363 22.8624 66.3256 22.9144 66.315 22.9651Z" fill="#F57F32"/>
<path d="M71.2025 29.1582C71.2011 29.0235 71.2011 28.8889 71.2011 28.7555C71.2318 28.7889 71.2625 28.8235 71.2918 28.8582C71.2611 28.9582 71.2318 29.0582 71.2025 29.1582ZM67.8025 23.8742C67.6345 23.8582 67.4651 23.8515 67.2931 23.8515C67.2584 23.8515 67.2238 23.8515 67.1891 23.8529C66.9065 23.5409 66.6145 23.2449 66.3145 22.9649C66.3251 22.9142 66.3358 22.8622 66.3465 22.8115C66.8531 23.1449 67.3358 23.4995 67.8025 23.8742Z" fill="#BE511E"/>
<path d="M72.9723 31.2031C72.4683 30.3538 71.9083 29.5698 71.291 28.8578C71.4257 28.4165 71.571 27.9765 71.7283 27.5391C72.063 27.9031 72.3563 28.2871 72.5497 28.6951C72.747 29.1058 72.8963 29.5298 73.007 29.9658C73.0203 30.3698 73.0097 30.7765 72.9763 31.1925C72.975 31.1951 72.9737 31.2005 72.9723 31.2031Z" fill="#F46D2A"/>
<path d="M71.2014 28.7559C70.6814 28.1665 70.1241 27.6292 69.5255 27.1452C68.9815 26.1612 68.3655 25.2505 67.6895 24.4305C67.7535 24.2665 67.8188 24.1039 67.8868 23.9425C68.6015 24.5225 69.2775 25.1479 69.9388 25.8132C70.3321 26.2145 70.8121 26.6279 71.2641 27.0652C71.2254 27.6279 71.2041 28.1919 71.2014 28.7559Z" fill="#F46D2A"/>
<path d="M71.2921 28.8594C71.2628 28.8247 71.2321 28.79 71.2014 28.7567C71.2041 28.1927 71.2254 27.6287 71.2641 27.066C71.4241 27.2207 71.5814 27.3794 71.7294 27.5407C71.5721 27.978 71.4268 28.418 71.2921 28.8594ZM67.6895 24.4314C67.5268 24.2327 67.3601 24.0407 67.1895 23.854C67.2241 23.8527 67.2588 23.8527 67.2934 23.8527C67.4654 23.8527 67.6348 23.8594 67.8028 23.8754C67.8308 23.898 67.8588 23.9207 67.8868 23.9434C67.8188 24.1047 67.7535 24.2674 67.6895 24.4314Z" fill="#BD471F"/>
<path d="M72.225 37.8803C72.329 47.987 66.329 56.2418 58.8317 56.3257C51.329 56.3991 45.1677 48.2644 45.0677 38.1497C44.9663 28.0244 50.9717 19.7777 58.461 19.7017C65.9557 19.6297 72.1223 27.7644 72.225 37.8803Z" fill="#1B181A"/>
<path d="M71.007 37.2418C71.1017 46.5952 65.575 54.2285 58.663 54.2925C51.7497 54.3618 46.0697 46.8418 45.9937 37.4978C45.8883 28.1632 51.4084 20.5165 58.3244 20.4565C65.2377 20.3872 70.9003 27.9085 71.007 37.2418Z" fill="#D2D4CC"/>
<path d="M100.571 38.8587C99.9667 49.5267 93.0693 57.8281 85.1453 57.3749C77.232 56.9333 71.316 47.9174 71.908 37.2334C72.5133 26.5721 79.4107 18.2721 87.3213 18.7134C95.2427 19.1734 101.163 28.1854 100.571 38.8587Z" fill="#1B181A"/>
<path d="M99.3315 38.1033C98.7715 47.9766 92.4009 55.6262 85.1089 55.2273C77.8155 54.8153 72.3662 46.4819 72.9195 36.6126C73.4729 26.7566 79.8355 19.0833 87.1302 19.5099C94.4289 19.9166 99.8795 28.2446 99.3315 38.1033Z" fill="#D2D4CC"/>
<path d="M70.9987 36.2794C71.0801 45.0807 65.5441 52.2886 58.6267 52.3567C51.7174 52.4406 46.0521 45.342 45.9681 36.53C45.8707 27.7247 51.4067 20.5167 58.3227 20.4447C65.2361 20.3874 70.8987 27.462 70.9987 36.2794Z" fill="#FFFFF7"/>
<path d="M99.3 37.2548C98.724 46.6895 92.3653 54.0215 85.06 53.6548C77.768 53.2616 72.3294 45.3135 72.896 35.8775C73.4654 26.4388 79.836 19.1175 87.1307 19.4948C94.4227 19.8801 99.8747 27.8321 99.3 37.2548Z" fill="#FFFFF7"/>
<path d="M92.5574 42.5976C93.016 47.5936 90.3787 51.924 86.6761 52.2616C82.9734 52.6058 79.6041 48.8016 79.1427 43.8162C78.6987 38.8136 81.3227 34.4816 85.0267 34.1522C88.7214 33.7962 92.1027 37.6016 92.5574 42.5976Z" fill="#1B181A"/>
<path d="M84.0017 38.4164C84.187 40.455 83.1177 42.2257 81.5963 42.3577C80.0857 42.503 78.699 40.9604 78.5283 38.9097C78.335 36.8724 79.411 35.087 80.919 34.9604C82.4443 34.819 83.819 36.363 84.0017 38.4164Z" fill="white"/>
<path d="M65.3708 43.8696C65.3095 48.883 62.2575 52.9379 58.5389 52.8962C54.8229 52.8388 51.8588 48.735 51.9148 43.707C51.9748 38.6856 55.0428 34.6536 58.7508 34.6963C62.4708 34.7363 65.4308 38.8443 65.3708 43.8696Z" fill="#1B181A"/>
<path d="M57.3044 38.8366C57.2618 40.8846 56.0297 42.5446 54.5111 42.5232C52.9817 42.5019 51.7791 40.8272 51.7951 38.7739C51.8177 36.7192 53.0778 35.0632 54.5911 35.0859C56.1031 35.0979 57.3244 36.7926 57.3044 38.8366Z" fill="white"/>
<path d="M99.3309 38.0996C99.3002 38.0676 99.2709 38.0356 99.2402 38.0049C99.2642 37.7569 99.2829 37.5076 99.2989 37.2556C99.3349 36.6596 99.3469 36.0689 99.3362 35.4863C99.3816 36.3423 99.3802 37.2143 99.3309 38.0996Z" fill="#E4E5DE"/>
<path d="M72.8945 38.1816C72.8945 37.663 72.8945 37.1416 72.9185 36.6136C73.4572 27.019 79.4999 19.4936 86.5505 19.4936C86.7412 19.4936 86.9359 19.499 87.1292 19.511C93.7665 19.8816 98.8839 26.8136 99.3359 35.487C99.3465 36.0696 99.3345 36.6603 99.2985 37.2563C99.2825 37.5083 99.2639 37.7576 99.2399 38.0056C95.5759 34.1856 90.6599 31.3603 85.3146 31.3603C85.2706 31.3603 85.2265 31.3603 85.1839 31.3603C79.3985 31.439 75.8159 34.1523 72.8945 38.1816Z" fill="#FFFFFA"/>
<path d="M70.9757 38.6289C70.9517 38.5756 70.9263 38.5236 70.9023 38.4729C70.957 37.9209 70.989 37.3609 70.997 36.7929C71.0023 36.9422 71.005 37.0902 71.0063 37.2409C71.0063 37.7196 70.9997 38.1702 70.9757 38.6289Z" fill="#E4E5DE"/>
<path d="M70.9023 38.4727C68.697 33.8927 63.3076 31.2847 58.3783 30.7247C57.929 30.6727 57.4836 30.6473 57.0423 30.6473C52.7276 30.6473 48.8076 33.0567 46.0156 36.338C46.357 27.5393 51.697 20.5153 58.3236 20.4553C58.3556 20.454 58.3863 20.454 58.4183 20.454C65.177 20.454 70.7196 27.71 70.997 36.7927C70.989 37.3607 70.957 37.9207 70.9023 38.4727Z" fill="#FFFFFA"/>
<path d="M96.552 18.9816C95.4666 15.0936 91.4573 13.2722 87.6707 13.4735C83.5787 13.6989 80.556 16.6016 78.6106 19.9802C78.4133 20.3322 78.8013 20.5349 79.0586 20.2495C81.4786 17.5869 84.2373 15.7922 87.92 15.6722C91.156 15.5682 93.1133 17.9295 95.204 19.9669C95.7213 20.4669 96.7066 19.5696 96.552 18.9816Z" fill="#1B181A"/>
<path d="M47.8845 19.5193C48.9752 15.6406 52.9965 13.8366 56.7765 14.062C60.8578 14.302 63.8818 17.23 65.8018 20.6153C66.0072 20.9593 65.6032 21.1566 65.3512 20.8766C62.9565 18.206 60.2005 16.3793 56.5205 16.254C53.2832 16.1353 51.3285 18.478 49.2152 20.5086C48.7032 21.0153 47.7152 20.1033 47.8845 19.5193Z" fill="#1B181A"/>
<path d="M88.2937 63.0908C87.3457 62.3148 86.1924 61.3001 84.9657 60.5335C83.9191 60.1403 82.8844 59.832 81.8871 59.672C80.2257 59.3892 78.6671 59.8507 77.1031 60.3121C75.7551 60.7096 74.4031 61.108 72.9791 61.0293C71.1751 60.9455 69.9764 59.4481 68.3137 60.0012C68.2777 59.8908 68.2471 59.7523 68.1791 59.62C68.0804 59.4225 67.7764 59.672 67.7951 59.8268C67.8324 59.9829 67.8324 60.1148 67.8324 60.2241L67.6951 60.3096C67.3937 60.4949 67.3697 60.8012 67.4764 61.0001C67.1124 61.2163 66.4804 61.1225 65.8031 60.8815C64.8151 60.5335 63.8017 60.296 62.7751 60.0653C61.9964 59.8711 61.2297 59.7711 60.4817 59.7523C54.2764 60.6924 50.0977 68.7559 53.7871 74.4044C54.7351 75.8668 55.9884 77.2189 57.5351 78.0668C59.9724 79.4105 62.1471 79.2293 64.7937 78.5772C66.7231 78.1163 67.4911 79.1309 69.0071 80.2481C70.8004 81.5788 72.4817 80.9548 74.2204 80.332C75.5711 79.8481 76.9551 79.3643 78.4551 79.7949C82.1457 80.8439 85.8417 82.132 89.4737 79.8881C91.2337 78.8096 92.7684 77.2533 93.4857 75.2815C93.9817 73.9173 94.071 72.6867 93.9537 71.4507C93.1284 68.0335 91.1097 65.4053 88.2937 63.0908Z" fill="white"/>
<path d="M85.0307 81.127C84.468 81.127 83.9067 81.08 83.344 81.0003C83.2853 80.9926 83.2267 80.9831 83.1693 80.9748C81.6 80.7322 80.0267 80.2415 78.4547 79.7951C78.0453 79.6774 77.6467 79.6284 77.2533 79.6284C76.2027 79.6284 75.2027 79.9806 74.22 80.3322C73.9787 80.4191 73.7387 80.5046 73.5 80.5858C74.4747 80.0107 75.16 78.9831 75.9747 77.8712C78.096 79.5628 80.6347 80.7003 83.3827 80.7003C83.6613 80.7003 83.9427 80.6883 84.224 80.6644C88.0267 80.3472 91.3747 78.5977 93.3133 75.2816C93.5053 74.9388 93.664 74.5883 93.7907 74.2336C93.7147 74.5738 93.6147 74.9216 93.4853 75.2816C92.768 77.2535 91.2333 78.8097 89.4733 79.8883C88.0013 80.7977 86.5187 81.127 85.0307 81.127Z" fill="#D6D9D7"/>
<path d="M71.1722 81.0352C70.4616 81.0138 69.7429 80.7966 69.0056 80.2498C69.0016 80.2472 68.9976 80.2446 68.9936 80.2404C68.9909 80.2285 68.9896 80.2154 68.9869 80.2018L68.9482 80.207C67.7242 79.2952 66.9829 78.4644 65.6829 78.4644C65.4136 78.4644 65.1202 78.5004 64.7922 78.5789C64.7282 78.5941 64.6642 78.6097 64.6016 78.6242C65.2202 78.3925 65.8189 78.1029 66.3869 77.7618L66.4402 77.8232C66.4962 77.8086 66.5536 77.8004 66.6082 77.8004C66.7736 77.8004 66.9202 77.8728 66.9736 78.042L67.0082 78.067L67.0282 78.0685C67.5789 78.4592 68.5402 79.5576 68.7362 79.7362C69.3829 80.3576 69.8936 80.8456 70.8376 80.9909C70.9522 81.0097 71.0629 81.0242 71.1722 81.0352ZM83.7456 79.842C82.6082 79.842 81.4789 79.6941 80.4269 79.418C78.9376 79.0326 77.5629 78.2941 76.3296 77.3394C76.3536 77.1966 76.2522 77.1018 76.1309 77.1018C76.1016 77.1018 76.0709 77.1086 76.0402 77.1206C74.5802 75.9498 73.3336 74.4633 72.4042 72.9029C71.1629 70.8242 70.8216 68.6378 70.6856 66.3857C70.7242 66.1138 70.7602 65.8404 70.7936 65.5685C72.7656 71.6045 77.1002 76.978 83.9136 77.478C84.2962 77.507 84.6775 77.5217 85.0562 77.5217C87.9975 77.5217 90.7949 76.6404 92.7042 74.9498C92.4096 75.4898 92.0349 76.0337 91.5749 76.5816C89.6776 78.8618 86.6816 79.842 83.7456 79.842Z" fill="#D6D9D7"/>
<path d="M53.7858 74.4051C53.6992 74.2717 53.6165 74.1384 53.5392 74.0019C53.5378 73.9993 53.5365 73.9983 53.5352 73.9956C53.6138 74.1327 53.6978 74.2685 53.7858 74.4051Z" fill="#D39354"/>
<path d="M61.5528 78.2734C60.0688 78.2734 58.5422 77.9641 57.0862 77.3256C56.1382 76.9094 55.3475 76.3417 54.7102 75.6668C54.3755 75.263 54.0675 74.8392 53.7862 74.4058C53.6982 74.2693 53.6142 74.1334 53.5355 73.9964C52.8942 72.736 52.6168 71.3001 52.6835 69.8682C53.1795 72.9734 55.0182 75.5573 58.8902 76.1693C59.4262 76.2562 59.9742 76.299 60.5248 76.299C63.4822 76.299 66.5115 75.0668 68.3715 72.7854C69.4155 71.5177 69.9942 69.9324 70.3595 68.2573C70.4675 69.036 70.6235 69.8026 70.8395 70.5548C70.0342 75.5308 65.9742 78.2734 61.5528 78.2734Z" fill="#D6D9D7"/>
<path d="M93.3135 75.2832C91.3749 78.5994 88.0268 80.3488 84.2242 80.666C81.1535 80.9259 78.3108 79.7363 75.9748 77.8728C74.5815 79.7728 73.5682 81.4311 70.8388 80.991C69.8948 80.8456 69.3842 80.3576 68.7375 79.7363C68.5415 79.5576 67.5802 78.4592 67.0295 78.0686L67.0095 78.0671L66.9748 78.042C66.9042 77.8166 66.6668 77.7619 66.4415 77.8232L66.3882 77.7619C63.4668 79.5191 59.7242 79.9062 56.5668 78.13C51.2135 75.1114 50.6028 67.7456 55.0148 63.7952C54.4562 64.4243 54.0735 65.1899 53.7722 65.9847C51.6335 69.879 52.5588 75.3431 57.0868 77.3259C62.8788 79.8634 69.7642 77.2019 70.8402 70.5551C70.1455 68.1363 70.0708 65.5524 70.2068 62.991C68.3548 62.7926 67.0682 62.2634 65.8348 60.6942C64.5882 59.1275 64.8068 58.1155 65.8562 57.3754C66.4015 56.9062 67.1668 56.5832 67.8162 56.3994C69.4695 55.9404 71.1628 55.9404 72.8148 56.2832C73.5175 56.3874 74.2495 56.5832 75.0108 56.8404C77.5722 57.7218 77.1828 59.5847 75.2282 61.1431C73.8042 62.2696 72.6082 63.178 70.6762 63.0352L70.5535 63.0207C70.7055 66.4608 70.5535 69.8004 72.4055 72.903C73.3348 74.4634 74.5815 75.9499 76.0415 77.1207C76.1962 77.0592 76.3602 77.1608 76.3308 77.3395C77.5642 78.2942 78.9388 79.0327 80.4282 79.418C84.1962 80.4062 88.9429 79.7456 91.5762 76.5816C94.9002 72.6327 93.6975 68.8712 90.9282 65.3671C93.8495 67.6926 95.2269 71.854 93.3135 75.2832Z" fill="#1B181A"/>
<path d="M72.956 62.0842C73.5254 61.7832 77.1827 59.2348 75.9614 58.1963C75.036 57.4015 73.8414 57.3176 72.708 57.0083C72.392 56.9217 72.108 56.8525 71.8094 56.8015C71.0454 56.7192 70.2654 56.6723 69.384 56.7713C69.2467 56.7911 69.0867 56.8014 68.9214 56.8228C67.9147 57.0389 66.9107 57.438 65.8614 58.0192C65.5747 58.3203 65.4587 58.7151 65.756 59.1859C66.2814 60.0832 67.068 61.3749 68.0974 61.8004C69.3894 62.2979 71.6507 62.7749 72.956 62.0842Z" fill="#F57A74"/>
<path d="M75.9606 58.1971C75.4833 57.7935 74.926 57.5731 74.3393 57.4023C74.3393 59.081 72.7073 60.6559 71.1193 61.4544C70.5286 61.7398 69.9153 61.9826 69.2793 62.1722C70.5153 62.4679 71.99 62.5867 72.9553 62.0851C73.5246 61.784 77.182 59.2356 75.9606 58.1971Z" fill="#C65D61"/>
<path d="M75.6175 77.5808C74.5802 76.7114 73.6522 75.6969 72.8535 74.6318C72.0509 73.5688 71.4989 72.425 71.0829 71.2516C70.6055 73.8933 68.9402 76.0901 66.7695 77.5172C67.1709 77.8157 68.3122 78.4704 68.8882 79.0157C69.6895 79.772 70.3589 80.4652 71.5602 80.5114C73.7269 80.5808 74.5469 79.0318 75.6175 77.5808Z" fill="#B54064"/>
<path d="M70.8747 76.87C69.7454 77.2444 69.088 77.922 68.5547 78.7444C68.6814 78.8263 68.7814 78.9178 68.888 79.0153C69.6894 79.7716 70.3587 80.4648 71.56 80.5111C73.5507 80.5804 74.4093 79.2621 75.376 77.922C74.1493 76.8777 72.468 76.3288 70.8747 76.87Z" fill="#97164D"/>
<path d="M69.0896 60.5941C68.903 60.1409 68.3963 59.8914 68.0376 59.5445C67.5296 59.0581 67.4763 58.5477 67.859 57.9409C67.9616 57.7794 67.7536 57.6717 67.6336 57.8128C67.2323 58.2597 66.863 58.818 67.0536 59.4685C67.2496 60.1154 67.9416 60.93 68.6003 61.1232C68.867 61.2008 69.223 60.8742 69.0896 60.5941Z" fill="white"/>
<path d="M70.7555 61.3002C70.5835 61.0773 70.3915 61.0592 70.1448 60.9669C69.8941 60.8737 69.5688 61.2816 69.8368 61.4534C69.9928 61.5404 70.1835 61.6242 70.3595 61.7029C70.5435 61.783 70.8755 61.4988 70.7555 61.3002Z" fill="white"/>
<path d="M102.818 55.2587C99.7745 54.4723 96.7278 54.5117 93.6358 54.9483C92.0185 55.1748 90.4465 55.6269 88.9425 56.2065C87.4451 56.7723 86.3758 57.8628 84.9891 58.6024C84.8065 58.68 84.7665 59.0321 85.0265 58.9253C85.7291 58.6399 86.2945 58.2961 86.9158 57.8518C88.5345 56.6732 90.6758 56.2415 92.5812 55.8603C95.9278 55.1936 99.1492 55.58 102.478 55.9237C102.764 55.9586 103.202 55.3519 102.818 55.2587Z" fill="#451F13"/>
<path d="M60.6373 59.3724C59.2533 57.1828 56.7186 55.7989 54.0293 54.8093C50.6026 53.5213 47.7399 53.1921 44.0413 53.8161C43.8933 53.8443 43.7919 54.1067 44.0039 54.0681C50.2053 53.1948 56.1919 56.0041 59.9693 59.8281C60.2239 60.0724 60.8066 59.6213 60.6373 59.3724Z" fill="#451F13"/>
<path d="M85.0255 68.1137C84.4548 68.4393 83.8615 68.7642 83.2508 69.0845C83.0281 69.1845 82.7868 69.3402 82.5215 69.5137C87.2015 67.9429 92.4215 65.6991 96.2601 62.3897C96.8201 61.8215 97.3335 61.1819 97.7495 60.4965C94.4482 63.9377 89.6455 66.3085 85.0255 68.1137Z" fill="#451F13"/>
<path d="M87.2815 70.2502C87.6708 70.1659 88.0721 70.0862 88.4641 70.0102C91.3148 69.2007 94.1988 68.5769 97.0988 68.1351C98.3321 67.8685 99.5801 67.6299 100.811 67.3887C102.268 67.1034 103.731 66.9138 105.192 66.7597C97.7601 66.7143 90.3455 68.481 83.4668 71.1914C84.7588 70.9887 85.9935 70.5102 87.2815 70.2502Z" fill="#451F13"/>
<path d="M103.731 75.9492L103.67 75.7252C97.803 73.7747 90.5044 72.5039 84.207 73.7356C90.747 72.8679 97.359 74.2722 103.731 75.9492Z" fill="#451F13"/>
<path d="M54.8057 65.4954C55.399 65.8314 55.9883 66.1579 56.587 66.4741C56.807 66.5793 57.0563 66.7246 57.3243 66.8965C52.643 65.334 47.4177 63.0913 43.587 59.7845C43.007 59.2033 42.515 58.5768 42.0977 57.8809C45.391 61.323 50.1883 63.6913 54.8057 65.4954Z" fill="#451F13"/>
<path d="M52.5564 67.6312C52.1764 67.5489 51.7751 67.4697 51.3778 67.4063C48.5271 66.5817 45.6604 65.9697 42.7484 65.5287C41.5151 65.2567 40.2791 65.0099 39.0364 64.7713C37.5711 64.4979 36.1111 64.302 34.6484 64.1635C42.0804 64.102 49.4844 65.8765 56.3831 68.5781C55.0818 68.3713 53.8324 67.9063 52.5564 67.6312Z" fill="#451F13"/>
<path d="M36.1113 73.332L36.1807 73.1107C42.038 71.1627 49.33 69.8783 55.6407 71.1148C49.0927 70.2507 42.49 71.6602 36.1113 73.332Z" fill="#451F13"/>
<path d="M32.454 33.7539C32.4114 33.7539 32.3714 33.7379 32.338 33.6966C27.778 28.4299 28.2927 20.6419 28.0273 14.2246L28.158 14.1686C28.9967 17.4259 28.8767 20.9126 29.63 24.2153C30.3513 27.3446 31.3327 30.4832 32.71 33.3952C32.7807 33.5379 32.606 33.7539 32.454 33.7539Z" fill="#FABD7B"/>
<path d="M100.889 14.6543C100.717 14.6543 100.581 14.5543 100.688 14.3223C102.152 11.0103 105.973 9.12364 109.04 7.54631C113.164 5.43831 117.768 4.20896 122.268 3.13429C122.28 3.13163 122.289 3.13031 122.299 3.13031C122.407 3.13031 122.363 3.32229 122.271 3.36763C115.193 6.19829 106.132 8.13696 101.245 14.5036C101.164 14.5996 101.017 14.6543 100.889 14.6543Z" fill="#FABD7B"/>
<path d="M118.028 54.8477C117.307 54.1206 116.498 53.4597 115.619 52.8753L115.656 52.8075C116.12 53.0143 116.579 53.2502 117.024 53.5143C116.958 53.4966 116.891 53.481 116.824 53.4649C117.252 53.9034 117.656 54.3649 118.028 54.8477Z" fill="#D59562"/>
<path d="M121.432 65.7871C121.376 65.7871 121.33 65.748 121.343 65.6658C122.307 61.5163 120.838 57.683 118.028 54.8486C117.656 54.3658 117.252 53.9043 116.824 53.4658C116.891 53.4819 116.958 53.4975 117.024 53.5152C120.847 55.7751 123.768 60.0844 121.563 65.6991C121.536 65.7563 121.482 65.7871 121.432 65.7871Z" fill="#D48B5F"/>
<path d="M123.637 52.3223C123.541 52.3223 123.441 52.2823 123.351 52.1875C123.332 52.1676 123.313 52.1489 123.296 52.1291C122.845 50.8996 122.603 49.5289 122.395 48.1516C123.009 49.2609 123.571 50.3996 124.093 51.5489C124.24 51.8889 123.955 52.3223 123.637 52.3223Z" fill="#F9AC6F"/>
<path d="M122.013 44.5254C121.912 44.3961 121.809 44.2667 121.705 44.1387C121.59 43.6774 121.457 43.2334 121.297 42.8134L121.344 42.7614C121.618 43.3467 121.833 43.9347 122.013 44.5254Z" fill="#F9AC6F"/>
<path d="M126.696 55.9941C126.666 55.9941 126.638 55.9873 126.612 55.9753C124.865 55.1555 123.896 53.7675 123.296 52.1289C123.313 52.1488 123.332 52.1675 123.35 52.1873C123.441 52.2821 123.541 52.3221 123.637 52.3221C123.954 52.3221 124.24 51.8888 124.093 51.5488C123.57 50.3995 123.009 49.2608 122.394 48.1515C122.188 46.7741 122.016 45.3915 121.705 44.1381C121.809 44.2661 121.912 44.3955 122.013 44.5248C122.492 46.0928 122.724 47.6835 123.177 49.2968C123.454 50.3088 125.265 54.1436 126.929 55.5717C127.114 55.7144 126.898 55.9941 126.696 55.9941Z" fill="#D48B5F"/>
<path d="M24.3814 54.7031C24.3228 54.7031 24.2761 54.6671 24.2841 54.5775C24.6041 51.1405 26.6428 48.3018 29.1828 46.0684L29.2174 46.1098C26.7788 48.4551 25.2174 51.2178 24.5854 54.5417C24.5654 54.6365 24.4614 54.7031 24.3814 54.7031Z" fill="#D48B5F"/>
<path d="M21.2122 49.5996C21.1015 49.5996 21.0055 49.5223 21.0575 49.3729C21.5202 48.1609 22.1335 46.9063 23.0388 45.9609C24.0215 44.9516 25.2122 44.2089 26.2815 43.3009L26.3068 43.3396C25.4335 44.2303 24.4268 45.0223 23.6175 45.9623C22.6935 47.0276 22.1015 48.2596 21.4255 49.4716C21.3815 49.5583 21.2935 49.5996 21.2122 49.5996Z" fill="#D48B5F"/>
<path d="M36.7132 76.5684C36.6799 76.5684 36.6465 76.5574 36.6159 76.5298C33.1172 73.4736 31.3759 69.0845 30.6719 64.6897C30.7599 64.2429 30.8665 63.7992 30.9879 63.3574C31.7852 68.0112 33.7079 72.3418 36.8599 76.2762C36.9545 76.4028 36.8385 76.5684 36.7132 76.5684Z" fill="#F9AC6F"/>
<path d="M30.6706 64.6895C30.1186 61.2375 30.2066 57.7817 30.588 54.9681L30.712 54.9484C30.4386 57.8495 30.524 60.6572 30.9866 63.3572C30.8653 63.7989 30.7586 64.2427 30.6706 64.6895Z" fill="#D48B5F"/>
<path d="M100.644 82.5195C100.484 82.5195 100.484 82.2726 100.654 82.2169C103.26 81.2445 105.804 80.1143 108.322 78.9007C110.742 77.7409 113.746 76.4102 115.339 74.9169L115.399 74.9726C113.79 76.6075 111.272 77.8435 109.246 78.8778C106.474 80.2982 103.688 81.6179 100.7 82.5111C100.68 82.5169 100.662 82.5195 100.644 82.5195Z" fill="#F9AC6F"/>
<path d="M70.2108 82.0117C70.1628 82.0117 70.1148 82.0013 70.0695 81.9774C69.7561 81.792 69.2054 81.6332 68.9588 81.3332C68.6748 80.9748 68.7135 80.6654 68.8188 80.2237L68.9481 80.2065C68.9628 80.2185 68.9774 80.2295 68.9934 80.2399C69.1388 81.0988 70.0668 80.8519 70.5761 81.328C70.7134 81.4603 70.6748 81.6332 70.5948 81.7784L70.4508 81.9373C70.3775 81.98 70.2934 82.0117 70.2108 82.0117Z" fill="#F9A95A"/>
<path d="M68.9945 80.2402C68.9785 80.2298 68.9639 80.2189 68.9492 80.2069L68.9879 80.2017C68.9906 80.2153 68.9919 80.2284 68.9945 80.2402Z" fill="#DFDFDD"/>
<path d="M71.298 81.9082C71.1914 81.9082 71.1034 81.8322 71.0061 81.7165C70.8834 81.5713 71.0327 81.3577 71.1927 81.3577C71.2314 81.3577 71.2701 81.3697 71.3061 81.3978L71.5487 81.5655L71.4887 81.8379C71.4167 81.8858 71.354 81.9082 71.298 81.9082Z" fill="#F9A95A"/>
</svg>
