<?xml version="1.0" encoding="UTF-8"?>
<svg xmlns="http://www.w3.org/2000/svg" xmlns:xlink="http://www.w3.org/1999/xlink" width="3600" height="2400" viewBox="0 0 3600 2400">
<path fill-rule="evenodd" fill="rgb(4.998779%, 4.998779%, 5.999756%)" fill-opacity="1" d="M 540.1875 933.539062 C 520.402344 960.738281 541.898438 981.089844 558.140625 1018.890625 C 570.617188 1047.960938 572.320312 1079.261719 593.105469 1098.191406 C 645.207031 1145.640625 672.164062 1055.570312 698.164062 1028.789062 C 718.992188 1007.339844 739.355469 996.449219 736.941406 968.050781 C 729.0625 875.75 555.773438 912.109375 540.1875 933.539062 "/>
<path fill-rule="evenodd" fill="rgb(4.998779%, 4.998779%, 5.999756%)" fill-opacity="1" d="M 584.148438 406.160156 C 569.535156 431.878906 633.417969 562.300781 639.5625 567.46875 C 695.800781 614.820312 722.347656 519.199219 745.429688 496.75 C 768.128906 474.671875 786.027344 463.878906 784.011719 436.648438 C 777.527344 349.238281 601.433594 375.71875 584.148438 406.160156 "/>
<path fill-rule="evenodd" fill="rgb(4.998779%, 4.998779%, 5.999756%)" fill-opacity="1" d="M 1178.691406 780.128906 C 1161.46875 812.621094 1228.910156 937.699219 1232.25 940.820312 C 1288.050781 993.128906 1312.871094 894.820312 1339.441406 869.21875 C 1361.949219 847.558594 1381.109375 842.660156 1376.910156 809.800781 C 1365.890625 723.621094 1194.128906 750.988281 1178.691406 780.128906 "/>
<path fill-rule="evenodd" fill="rgb(4.998779%, 4.998779%, 5.999756%)" fill-opacity="1" d="M 618.476562 275.941406 C 592.246094 323.328125 685.402344 401.78125 717.8125 355.871094 C 746.058594 315.859375 647.859375 222.851562 618.476562 275.941406 "/>
<path fill-rule="evenodd" fill="rgb(4.998779%, 4.998779%, 5.999756%)" fill-opacity="1" d="M 1066.371094 852.949219 C 1043.851562 898.53125 1148.871094 948.441406 1178.03125 901.78125 C 1209.359375 851.640625 1094.488281 796.039062 1066.371094 852.949219 "/>
<path fill-rule="evenodd" fill="rgb(4.998779%, 4.998779%, 5.999756%)" fill-opacity="1" d="M 592.445312 524.691406 C 580.015625 447.78125 489.234375 436.261719 472.9375 479.390625 C 456.652344 522.460938 530.789062 573.941406 592.445312 524.691406 "/>
<path fill-rule="evenodd" fill="rgb(4.998779%, 4.998779%, 5.999756%)" fill-opacity="1" d="M 544.585938 1045.398438 C 522.933594 970.070312 421.457031 970.21875 424.449219 1023.488281 C 427.054688 1069.890625 513.496094 1106.109375 544.585938 1045.398438 "/>
<path fill-rule="evenodd" fill="rgb(4.998779%, 4.998779%, 5.999756%)" fill-opacity="1" d="M 676.863281 883.351562 C 670.425781 824.390625 623.785156 769.101562 565.808594 807 C 566.566406 872.398438 627.964844 926.789062 676.863281 883.351562 "/>
<path fill-rule="evenodd" fill="rgb(4.998779%, 4.998779%, 5.999756%)" fill-opacity="1" d="M 1047.46875 747.441406 C 1014.160156 797.101562 1118.160156 845.089844 1149.871094 804.171875 C 1185.539062 758.128906 1081.039062 697.378906 1047.46875 747.441406 "/>
<path fill-rule="evenodd" fill="rgb(4.998779%, 4.998779%, 5.999756%)" fill-opacity="1" d="M 514.835938 288.128906 C 486.859375 334.441406 575.09375 415.671875 608.648438 359.839844 C 633.914062 317.808594 545.464844 237.429688 514.835938 288.128906 "/>
<path fill-rule="evenodd" fill="rgb(4.998779%, 4.998779%, 5.999756%)" fill-opacity="1" d="M 453.5 373.640625 C 421.710938 422.730469 527.851562 472.878906 558.40625 426.910156 C 589.753906 379.75 484.578125 325.640625 453.5 373.640625 "/>
<path fill-rule="evenodd" fill="rgb(4.998779%, 4.998779%, 5.999756%)" fill-opacity="1" d="M 1109.300781 662.058594 C 1078.230469 714.769531 1169.480469 783.871094 1199.53125 737.390625 C 1228.078125 693.230469 1139.089844 611.53125 1109.300781 662.058594 "/>
<path fill-rule="evenodd" fill="rgb(4.998779%, 4.998779%, 5.999756%)" fill-opacity="1" d="M 516.605469 954.210938 C 511.550781 873.609375 418.355469 874.070312 403.132812 906 C 384.242188 945.640625 457.765625 1006.898438 516.605469 954.210938 "/>
<path fill-rule="evenodd" fill="rgb(4.998779%, 4.998779%, 5.999756%)" fill-opacity="1" d="M 462.21875 819.660156 C 462.367188 885.160156 527.363281 937.730469 558.917969 895.820312 C 579.289062 868.75 537.507812 772.179688 462.21875 819.660156 "/>
<path fill-rule="evenodd" fill="rgb(4.998779%, 4.998779%, 5.999756%)" fill-opacity="1" d="M 2569.78125 1466.949219 C 2555 1496.125 2574.128906 1510.757812 2589.921875 1549.554688 C 2600.328125 1575.132812 2604.269531 1608.710938 2623.710938 1625.296875 C 2681.589844 1674.703125 2706.75 1579.1875 2733.75 1552.460938 C 2757.78125 1528.667969 2773.398438 1520.75 2767.898438 1490.871094 C 2761.519531 1456.285156 2737.519531 1445.113281 2716.109375 1441.308594 C 2683.441406 1435.507812 2588.179688 1430.605469 2569.78125 1466.949219 "/>
<path fill-rule="evenodd" fill="rgb(4.998779%, 4.998779%, 5.999756%)" fill-opacity="1" d="M 2761.851562 1986.085938 C 2735.511719 2013.707031 2752.488281 2023.160156 2771.96875 2066.039062 C 2778.769531 2081.003906 2807.710938 2215.316406 2873.5 2151.339844 C 2886.871094 2138.347656 2890.199219 2111.710938 2916.109375 2085.902344 C 2936.078125 2066.015625 2956.660156 2055.007812 2955.539062 2026.050781 C 2951.929688 1932.957031 2776.921875 1970.285156 2761.851562 1986.085938 "/>
<path fill-rule="evenodd" fill="rgb(4.998779%, 4.998779%, 5.999756%)" fill-opacity="1" d="M 1905.789062 1157.789062 C 1881.878906 1185.011719 1899.078125 1195.980469 1916.660156 1237.308594 C 1928.609375 1265.398438 1934.351562 1304.441406 1956.691406 1324.96875 C 2011.75 1375.558594 2036.941406 1279.449219 2064.109375 1253.128906 C 2085.019531 1232.878906 2104.199219 1223.699219 2099.378906 1192.238281 C 2085.511719 1101.730469 1917.710938 1144.21875 1905.789062 1157.789062 "/>
<path fill-rule="evenodd" fill="rgb(4.998779%, 4.998779%, 5.999756%)" fill-opacity="1" d="M 1355.480469 1356.609375 C 1334.660156 1385.28125 1355.980469 1401.25 1372.441406 1440.589844 C 1383.46875 1466.976562 1385.800781 1500.902344 1407.660156 1520.9375 C 1424.601562 1536.46875 1456.011719 1538.246094 1476.339844 1513 C 1492.050781 1493.5 1484.351562 1480.679688 1513.449219 1452.074219 C 1537.210938 1428.742188 1555.328125 1419.644531 1552.101562 1390.738281 C 1541.769531 1298.261719 1370.109375 1336.46875 1355.480469 1356.609375 "/>
<path fill-rule="evenodd" fill="rgb(4.998779%, 4.998779%, 5.999756%)" fill-opacity="1" d="M 3348.308594 1828.710938 C 3320.449219 1857.175781 3338.691406 1872.945312 3355.5 1910.875 C 3362.871094 1927.519531 3392.371094 2063.84375 3460.039062 1995.0625 C 3475.539062 1979.308594 3474.101562 1957.148438 3497.761719 1932.472656 C 3517.300781 1912.105469 3540.390625 1904.488281 3539.128906 1873.925781 C 3537.738281 1840.617188 3518.78125 1822.710938 3491.160156 1817.011719 C 3467.941406 1812.222656 3366.238281 1810.378906 3348.308594 1828.710938 "/>
<path fill-rule="evenodd" fill="rgb(4.998779%, 4.998779%, 5.999756%)" fill-opacity="1" d="M 2090.191406 1698.308594 C 2073.351562 1728.8125 2141.699219 1856.679688 2145.570312 1860.050781 C 2199.371094 1907.066406 2225.761719 1814.507812 2246.890625 1792.554688 C 2270.910156 1767.597656 2290.828125 1761.023438 2289.070312 1732.441406 C 2286.789062 1695.320312 2262.878906 1680.921875 2237.761719 1675.804688 C 2202.671875 1668.664062 2108.539062 1665.015625 2090.191406 1698.308594 "/>
<path fill-rule="evenodd" fill="rgb(4.998779%, 4.998779%, 5.999756%)" fill-opacity="1" d="M 3369.269531 1713.390625 C 3351.121094 1760.773438 3453.871094 1841.882812 3476.359375 1782.5625 C 3494.890625 1733.714844 3391.460938 1655.445312 3369.269531 1713.390625 "/>
<path fill-rule="evenodd" fill="rgb(4.998779%, 4.998779%, 5.999756%)" fill-opacity="1" d="M 2123.589844 1567.640625 C 2097.210938 1612.269531 2189.351562 1696.222656 2223.328125 1647.742188 C 2250.398438 1609.113281 2155.671875 1513.378906 2123.589844 1567.640625 "/>
<path fill-rule="evenodd" fill="rgb(4.998779%, 4.998779%, 5.999756%)" fill-opacity="1" d="M 1212.679688 649.96875 C 1182.628906 702.199219 1285.148438 774.980469 1312.140625 728.519531 C 1335.949219 687.53125 1242.28125 598.539062 1212.679688 649.96875 "/>
<path fill-rule="evenodd" fill="rgb(4.998779%, 4.998779%, 5.999756%)" fill-opacity="1" d="M 2893.121094 1944.792969 C 2898.050781 1885.132812 2844.808594 1829.175781 2785.640625 1859.679688 C 2780.628906 1920.644531 2830.78125 1979.113281 2893.121094 1944.792969 "/>
<path fill-rule="evenodd" fill="rgb(4.998779%, 4.998779%, 5.999756%)" fill-opacity="1" d="M 2458.550781 1540.449219 C 2440.109375 1593.894531 2551.949219 1632.472656 2571.378906 1582.96875 C 2592.390625 1529.429688 2478.378906 1482.964844 2458.550781 1540.449219 "/>
<path fill-rule="evenodd" fill="rgb(4.998779%, 4.998779%, 5.999756%)" fill-opacity="1" d="M 3346.179688 1956.449219 C 3339.410156 1878.1875 3243.71875 1871.878906 3228.148438 1911.472656 C 3209.5 1958.878906 3294.808594 2006.347656 3346.179688 1956.449219 "/>
<path fill-rule="evenodd" fill="rgb(4.998779%, 4.998779%, 5.999756%)" fill-opacity="1" d="M 2706.140625 1410.476562 C 2708.898438 1351.191406 2651.851562 1300.140625 2600.429688 1330.46875 C 2591.421875 1390.628906 2654.96875 1459.964844 2706.140625 1410.476562 "/>
<path fill-rule="evenodd" fill="rgb(4.998779%, 4.998779%, 5.999756%)" fill-opacity="1" d="M 2036.601562 1116.25 C 2046.339844 1047.96875 1966.390625 995.210938 1934.648438 1031.050781 C 1911.089844 1057.628906 1965.339844 1154.171875 2036.601562 1116.25 "/>
<path fill-rule="evenodd" fill="rgb(4.998779%, 4.998779%, 5.999756%)" fill-opacity="1" d="M 1793.480469 1236.601562 C 1768.511719 1296.449219 1883.46875 1328.300781 1903.730469 1284.019531 C 1925.5 1236.46875 1817.238281 1179.648438 1793.480469 1236.601562 "/>
<path fill-rule="evenodd" fill="rgb(4.998779%, 4.998779%, 5.999756%)" fill-opacity="1" d="M 2762.378906 2113.183594 C 2755.429688 2036.949219 2663.550781 2024.179688 2645.609375 2064.1875 C 2626.910156 2105.921875 2701.859375 2164.640625 2762.378906 2113.183594 "/>
<path fill-rule="evenodd" fill="rgb(4.998779%, 4.998779%, 5.999756%)" fill-opacity="1" d="M 1492.851562 1306.578125 C 1486.160156 1249.078125 1438.148438 1190.269531 1381.328125 1230.03125 C 1380.871094 1295.960938 1443.460938 1349.328125 1492.851562 1306.578125 "/>
<path fill-rule="evenodd" fill="rgb(4.998779%, 4.998779%, 5.999756%)" fill-opacity="1" d="M 2097.128906 1815.96875 C 2088.148438 1754.097656 2028.109375 1721.144531 1976.761719 1770.035156 C 1979.328125 1837.085938 2047.371094 1859.007812 2097.128906 1815.96875 "/>
<path fill-rule="evenodd" fill="rgb(4.998779%, 4.998779%, 5.999756%)" fill-opacity="1" d="M 1356.71875 1478.722656 C 1360.308594 1409.628906 1266.699219 1389.269531 1242.769531 1429.253906 C 1218.589844 1469.632812 1302.160156 1532.070312 1356.71875 1478.722656 "/>
<path fill-rule="evenodd" fill="rgb(4.998779%, 4.998779%, 5.999756%)" fill-opacity="1" d="M 2020.628906 1580.285156 C 1990.460938 1628.5625 2082.460938 1708.144531 2114.808594 1652.128906 C 2137.230469 1613.308594 2052.941406 1528.589844 2020.628906 1580.285156 "/>
<path fill-rule="evenodd" fill="rgb(4.998779%, 4.998779%, 5.999756%)" fill-opacity="1" d="M 1829.648438 1049.851562 C 1805.921875 1096.609375 1891.429688 1171.308594 1923.730469 1120.679688 C 1950.910156 1078.101562 1859.699219 990.609375 1829.648438 1049.851562 "/>
<path fill-rule="evenodd" fill="rgb(4.998779%, 4.998779%, 5.999756%)" fill-opacity="1" d="M 1959.351562 1665.328125 C 1940.371094 1693.738281 1969.5 1720.054688 1988.160156 1729.691406 C 2002.488281 1737.097656 2045.558594 1746.410156 2063.671875 1718.40625 C 2094.128906 1671.285156 1990.910156 1618.085938 1959.351562 1665.328125 "/>
<path fill-rule="evenodd" fill="rgb(4.998779%, 4.998779%, 5.999756%)" fill-opacity="1" d="M 2684.859375 1877.800781 C 2656.589844 1925.171875 2749.140625 1998.960938 2779.859375 1949.195312 C 2804.851562 1908.699219 2717.921875 1822.449219 2684.859375 1877.800781 "/>
<path fill-rule="evenodd" fill="rgb(4.998779%, 4.998779%, 5.999756%)" fill-opacity="1" d="M 2620.160156 1968.050781 C 2603.070312 2018.90625 2711.929688 2058.335938 2731.808594 2010.210938 C 2754.378906 1955.542969 2638.761719 1912.726562 2620.160156 1968.050781 "/>
<path fill-rule="evenodd" fill="rgb(4.998779%, 4.998779%, 5.999756%)" fill-opacity="1" d="M 3207.488281 1811.953125 C 3184.53125 1868.769531 3298.28125 1905.273438 3316.800781 1853.585938 C 3334.898438 1803.113281 3228.890625 1758.96875 3207.488281 1811.953125 "/>
<path fill-rule="evenodd" fill="rgb(4.998779%, 4.998779%, 5.999756%)" fill-opacity="1" d="M 2499.578125 1349.011719 C 2472.121094 1398.03125 2560.011719 1470.886719 2592.671875 1420.289062 C 2618.859375 1379.710938 2530.148438 1294.449219 2499.578125 1349.011719 "/>
<path fill-rule="evenodd" fill="rgb(4.998779%, 4.998779%, 5.999756%)" fill-opacity="1" d="M 2437.410156 1434.421875 C 2409.679688 1482.46875 2512.320312 1530.117188 2542.171875 1486.972656 C 2574.859375 1439.746094 2467.75 1381.828125 2437.410156 1434.421875 "/>
<path fill-rule="evenodd" fill="rgb(4.998779%, 4.998779%, 5.999756%)" fill-opacity="1" d="M 1764.808594 1134.210938 C 1763.300781 1193.710938 1843.199219 1228.488281 1872.730469 1187.03125 C 1900.640625 1147.859375 1826.378906 1079.738281 1764.808594 1134.210938 "/>
<path fill-rule="evenodd" fill="rgb(4.998779%, 4.998779%, 5.999756%)" fill-opacity="1" d="M 1332.921875 1377.761719 C 1326.050781 1302.238281 1233.148438 1288.671875 1217.191406 1333.96875 C 1203.171875 1373.71875 1276.390625 1425.328125 1332.921875 1377.761719 "/>
<path fill-rule="evenodd" fill="rgb(4.998779%, 4.998779%, 5.999756%)" fill-opacity="1" d="M 3359.449219 1800.527344 C 3381.078125 1743.726562 3318.429688 1686.058594 3278.96875 1711.910156 C 3241.378906 1736.523438 3286.570312 1838.816406 3359.449219 1800.527344 "/>
<path fill-rule="evenodd" fill="rgb(4.998779%, 4.998779%, 5.999756%)" fill-opacity="1" d="M 1375.46875 1319.019531 C 1390.878906 1260.21875 1338.351562 1203.511719 1277.230469 1242.300781 C 1277.21875 1299.660156 1321.21875 1355.628906 1375.46875 1319.019531 "/>
</svg>
