<svg width="154" height="96" viewBox="0 0 154 96" fill="none" xmlns="http://www.w3.org/2000/svg">
<path d="M136.819 65.8626C136.819 65.8626 128.206 62.4496 126.033 70.6148C123.861 78.7814 127.007 84.6268 133.901 82.0788C135.999 84.7012 140.57 83.7268 141.543 82.6788C145.965 86.5762 155.781 82.6028 153.083 72.4121C150.386 62.2241 136.819 65.8626 136.819 65.8626Z" fill="#1B181A"/>
<path d="M151.107 70.514C152.246 72.3593 152.478 74.7099 152.354 76.9337C151.982 78.5561 151.267 80.0869 150.151 81.2895C148.269 83.3108 143.271 83.5228 141.835 80.8749C140.749 78.8697 141.229 76.1217 142.119 73.9099C142.265 73.4203 142.437 72.9271 142.611 72.4348C141.089 74.9072 139.898 78.0416 140.965 80.9312C141.095 81.314 141.287 81.638 141.502 81.9217C140.319 83.1645 138.555 82.6536 137.062 82.4775C135.226 82.2499 134.298 81.3895 133.954 79.5884C133.298 76.1791 133.737 73.0525 136.002 70.3561L135.925 70.2843C133.259 73.2775 132.055 77.5337 133.594 81.4056L133.621 81.4681C131.703 81.1749 128.831 81.1859 127.846 79.3869C127.322 78.426 126.759 77.7525 126.547 76.6047C126.333 75.4135 126.306 74.1416 126.419 72.9364C126.654 70.4416 127.649 67.9593 129.822 66.5656C131.849 65.2629 134.899 65.6348 136.762 67.0151L137.65 66.6775C138.539 66.4217 139.462 66.2416 140.386 66.1697C143.279 65.9525 146.705 66.9176 149.119 68.4807C149.974 69.0312 150.622 69.726 151.107 70.514Z" fill="#FFFFF7"/>
<path d="M130.755 67.6283L130.752 67.5136C128.53 68.3631 127.65 70.4735 127.526 72.7429C127.408 74.8762 128.151 78.9095 130.132 80.1454C130.466 80.3538 130.828 79.6965 130.732 79.4283C130.095 77.6726 129.059 76.2481 128.612 74.3762C127.998 71.8002 128.378 69.1511 130.755 67.6283Z" fill="#FFFFF7"/>
<path d="M136.096 71.5882C134.024 74.3226 133.193 78.7321 135.489 81.6215C135.772 81.9773 136.271 81.2439 136.153 80.9414C134.873 77.6403 134.412 74.8987 136.245 71.6482C136.325 71.5045 136.173 71.4867 136.096 71.5882Z" fill="#FFFFF7"/>
<path d="M144.809 80.7793C142.316 79.3049 142.96 76.5563 143.211 74.1205C143.229 73.9418 143.017 74.1126 142.992 74.1929C142.431 75.911 141.809 77.1246 142.012 78.9741C142.159 80.2897 142.773 81.6074 144.183 81.8178C144.547 81.8725 145.221 81.023 144.809 80.7793Z" fill="#FFFFF7"/>
<path d="M17.3019 65.8626C17.3019 65.8626 25.9153 62.4496 28.0872 70.6148C30.2596 78.7814 27.1133 84.6268 20.2201 82.0772C18.1227 84.7012 13.5508 83.7268 12.5773 82.6788C8.15652 86.5762 -1.65963 82.6028 1.03776 72.4121C3.73516 62.2241 17.3019 65.8626 17.3019 65.8626Z" fill="#1B181A"/>
<path d="M3.01295 70.514C1.87441 72.3593 1.64263 74.7099 1.76607 76.9337C2.13847 78.5561 2.85253 80.0869 3.96919 81.2895C5.85152 83.3108 10.8494 83.5228 12.2843 80.8749C13.3723 78.8697 12.8917 76.1217 12.0005 73.9099C11.8551 73.4203 11.6838 72.9271 11.5083 72.4348C13.0302 74.9072 14.2229 78.0416 13.1557 80.9312C13.0239 81.314 12.8333 81.638 12.6187 81.9217C13.8015 83.1645 15.5645 82.6536 17.0587 82.4775C18.8937 82.2499 19.8223 81.3895 20.1661 79.5884C20.8229 76.1791 20.3833 73.0525 18.1171 70.3561L18.1947 70.2843C20.8603 73.2775 22.0655 77.5337 20.5265 81.4056L20.4994 81.4681C22.415 81.1749 25.2895 81.1859 26.2739 79.3869C26.7978 78.426 27.3603 77.7525 27.5734 76.6047C27.7874 75.4135 27.8139 74.1416 27.7005 72.9364C27.4661 70.4416 26.4707 67.9593 24.2989 66.5656C22.2713 65.2629 19.2202 65.6348 17.3587 67.0151L16.4707 66.6775C15.5806 66.4217 14.6573 66.2416 13.7343 66.1697C10.8406 65.9525 7.41606 66.9176 5.00044 68.4807C4.14576 69.0312 3.49785 69.726 3.01295 70.514Z" fill="#FFFFF7"/>
<path d="M23.3672 67.6283L23.3693 67.5136C25.5927 68.3631 26.4719 70.4735 26.5964 72.7429C26.7136 74.8762 25.9703 78.9095 23.9901 80.1454C23.6568 80.3538 23.2927 79.6965 23.3901 79.4283C24.026 77.6726 25.0631 76.2481 25.5089 74.3762C26.1245 71.8002 25.7437 69.1511 23.3672 67.6283Z" fill="#FFFFF7"/>
<path d="M18.0255 71.5882C20.0974 74.3226 20.9286 78.7321 18.6318 81.6215C18.3488 81.9773 17.8488 81.2439 17.9676 80.9414C19.2479 77.6403 19.7094 74.8987 17.8766 71.6482C17.7958 71.5045 17.9474 71.4867 18.0255 71.5882Z" fill="#FFFFF7"/>
<path d="M20.3181 63.8157L20.3364 63.8105C21.2613 64.4781 23.0452 63.9053 24.041 63.7011C25.7436 63.3448 27.4238 62.4532 28.4473 61.0396C28.2274 62.2105 27.5853 63.3849 26.8957 64.1021C25.8864 65.1557 24.8749 65.5396 23.4613 65.8267C23.2821 65.86 23.3701 66.0824 23.4925 66.1355C24.5686 66.5891 25.3316 67.2505 26.4952 67.5663C27.2878 67.7933 28.0686 67.9491 28.904 67.9729C29.9925 68.0199 30.9733 67.6688 31.7181 66.9688C31.9826 69.6292 33.6514 72.4625 35.0061 74.4199C37.7858 78.4412 41.155 82.0891 45.1249 84.9584C52.8706 90.5516 63.6873 94.9729 73.4477 93.8901C74.8654 93.7677 76.2842 93.4901 77.7092 93.348C79.2482 93.1704 80.7482 92.8235 82.0154 91.9131C82.1769 92.2969 82.4092 92.6491 82.7217 92.9636C83.7706 94.0224 85.229 94.572 86.6774 94.8199C86.8624 94.8557 86.8686 94.6157 86.7744 94.5183C85.9066 93.6292 85.693 92.6688 85.7894 91.6277C86.6525 93.1933 87.8285 94.6303 89.5941 95.1813C90.214 95.3652 93.1097 96.3209 93.4384 95.4491C93.4785 95.3172 93.4504 95.1985 93.3566 95.0917C92.7608 94.3729 91.8921 94.0969 91.4124 93.1772C91.1701 92.7021 91.0061 92.2636 90.9154 91.848C94.614 94.7251 99.0389 95.1652 103.055 92.2475C103.206 92.1371 103.026 91.8781 102.887 91.8781C102.336 91.8756 101.55 91.7319 100.733 91.4797C100.027 91.0344 99.1878 90.8568 98.5618 90.2625C98.1212 89.8448 97.8212 89.3797 97.655 88.8891C99.7425 88.2329 102.07 88.1772 104.196 87.5625C105.873 87.0663 107.5 86.1985 108.979 85.2756C112.145 83.2944 115.711 81.1729 118.057 78.2172C119.357 76.572 120.694 74.9063 121.394 72.9079C121.917 71.3996 122.205 69.6901 122.419 68.1115C122.733 65.9267 122.92 63.8021 122.415 61.8183C123.495 63.7772 123.995 65.8115 124.186 68.1292C124.203 68.3251 124.575 68.5824 124.691 68.3131C126.474 63.9157 126.839 58.2063 124.679 53.8157C127.52 54.7944 129.623 52.8531 129.616 49.8864C129.616 49.7517 129.396 49.6317 129.322 49.7771C127.846 52.5811 124.753 49.2157 124.076 47.9477C123.613 47.0731 123.207 46.1757 122.908 45.2304C122.318 43.3677 121.863 41.4624 121.147 39.6451C120.446 37.8824 119.671 35.7517 118.373 34.2091C120.526 29.7744 120.76 23.9104 121.007 19.0571C121.142 16.5504 121.125 14.0758 120.787 11.5811C120.591 10.0718 120.349 8.56108 120.093 7.05708C119.97 6.31574 119.571 5.74775 119.629 4.96242C119.641 4.80642 119.444 4.65707 119.321 4.71707C116.816 4.33707 114.253 4.03442 111.797 4.93309C108.608 6.09842 105.503 7.31041 102.598 9.09441C100.155 10.5864 97.7077 12.2197 95.667 14.2451C93.9186 15.9851 92.5192 18.0731 90.816 19.7757L90.7921 19.8197C89.5941 19.4064 88.3436 19.1491 87.0468 19.0771C86.5733 18.8277 86.064 18.5971 85.5009 18.3784C85.6301 18.0891 85.7233 17.7851 85.7681 17.4491C86.0681 15.3344 85.229 12.8504 83.3144 11.7197C83.1957 11.6504 83.0473 11.6931 83.0473 11.8491C83.1853 15.7998 78.6644 16.5757 75.6368 16.9744C73.2916 17.2824 70.9764 17.5957 68.6826 18.1531C66.6973 18.6384 63.293 19.4291 61.8749 21.3557C60.5785 15.3571 54.603 10.8678 50.2973 6.98242C47.6925 4.65042 45.0274 2.47041 41.964 0.794415C40.4192 -0.0495851 38.503 -0.496262 37.143 0.983738C34.7608 3.5824 33.6982 7.29841 32.5056 10.5357C31.253 13.9184 30.004 17.4211 29.2796 20.9624C27.753 28.4317 28.7077 35.8904 30.354 43.2677C29.7269 43.7224 29.1425 44.2411 28.6561 44.8944C27.3238 46.7317 26.5306 48.8104 25.6201 50.8704C24.7925 52.7357 24.1118 54.6157 23.5389 56.5636C22.9353 58.6464 22.2993 62.0772 20.3764 63.4985H20.3706C20.231 63.4543 20.1916 63.5448 20.203 63.6423L20.3181 63.8157Z" fill="#1B181A"/>
<path d="M20.7305 63.5881C23.5549 61.8987 24.3373 56.5627 25.507 53.8321C26.4961 51.5388 27.3482 49.0228 28.6049 46.8641C29.8606 44.7268 31.4237 43.5348 33.2653 41.9975C33.4138 41.8615 33.1841 41.5895 33.0221 41.6775C32.2559 42.0975 31.4747 42.5028 30.7529 42.9855C29.9179 36.3068 28.7377 29.7881 29.9419 23.0375C31.0081 17.0348 33.0966 10.6535 35.7382 5.15879C36.3543 3.86412 37.2013 1.59346 38.6315 1.00813C40.431 0.265459 42.3997 1.69345 43.8597 2.66812C46.4701 4.39879 48.8502 6.41879 51.1606 8.52279C55.345 12.3375 59.8767 16.0348 61.7362 21.5695C61.4658 21.9961 61.2726 22.4721 61.2335 23.0095C61.2149 23.1228 61.3887 23.2668 61.4658 23.1335C64.8002 17.0548 74.7409 18.7828 80.3158 16.4841C81.5669 15.9641 83.5846 14.9161 83.5455 13.2721C83.5111 11.6695 84.4419 13.2921 84.769 13.8521C85.6997 15.5095 85.8617 17.8721 84.3398 19.2548C83.1862 20.3015 81.9299 20.5948 80.4237 20.8175C80.2226 20.8468 80.3611 21.1335 80.5273 21.1161C82.3007 20.9868 84.4367 20.2815 85.3497 18.6375C87.0477 19.4548 88.5466 20.0788 89.6185 21.7561C90.5319 23.1921 91.0715 24.7615 90.769 26.3935C89.8034 23.1068 86.0278 21.7268 82.6653 22.5321C82.4101 22.5881 82.5893 22.9215 82.7925 22.9135C86.2138 22.7801 89.9554 23.4295 90.5049 27.4481C90.5398 27.6988 90.9039 27.8708 90.9955 27.5788C91.6497 25.5468 91.1991 23.3215 89.9554 21.6028C89.3075 20.6975 88.6237 20.0601 87.8477 19.5495C90.4534 20.1508 92.9247 20.9481 95.2341 22.3548L95.2919 22.2521C94.0773 21.3068 92.7439 20.5414 91.3267 20.0001C92.7737 18.5108 93.9549 16.6895 95.4606 15.1881C97.4643 13.1908 99.7091 11.4601 102.106 9.97613C104.752 8.35613 107.439 7.05613 110.339 5.97479C113.391 4.83613 116.037 4.64013 119.232 4.96146C118.924 6.7068 119.872 8.86413 120.094 10.5975C120.458 13.3495 120.625 16.0828 120.464 18.8521C120.17 23.8761 119.741 29.1308 118.097 33.9015C117.721 33.5095 117.322 33.1441 116.852 32.8615L116.737 33.0188C119.105 35.5468 120.429 39.0148 121.372 42.2988C122.015 44.5175 122.572 47.0095 124.187 48.7708C125.259 49.9588 126.648 51.0201 128.309 50.9601C128.656 50.9508 129.323 50.1628 129.207 50.5895C128.569 53.1215 126.748 53.6881 124.431 53.2628L124.395 53.2721C123.748 52.1215 122.936 51.0615 121.895 50.1695L121.744 50.1508C121.958 50.4641 122.166 50.7948 122.376 51.1201C125.896 55.82 126.172 61.4283 124.539 66.9627C124.187 64.6976 123.642 62.4053 122.05 60.6987C121.888 60.272 121.657 59.8523 121.408 59.4471C121.611 60.1309 121.744 60.8268 121.817 61.5241C122.386 64.3575 121.751 67.4575 121.176 70.2616C120.406 74.0268 118.187 77.4387 115.214 79.9001C112.498 82.1559 109.598 84.5892 106.407 86.1096C103.524 87.4747 100.48 87.5283 97.5611 88.4711C97.4977 88.0001 97.5789 87.4976 97.8455 86.9924V86.9096C97.4299 87.3736 97.2773 88.084 97.2539 88.6747C97.2382 89.2377 97.5039 89.8044 97.8701 90.3044C98.3961 90.9429 99.3101 91.6096 100.184 91.7867C100.329 91.8601 100.47 91.9225 100.589 91.9892C101.203 92.2523 103.063 91.9924 101.499 92.6481C100.363 93.1257 99.1523 93.5653 97.9043 93.584C95.0149 93.6283 93.1034 92.6829 90.8226 91.1403C90.793 90.6892 90.8346 90.2121 90.8925 89.6892C90.4111 90.4799 90.2783 91.4069 90.4403 92.3575C90.769 93.3788 91.2982 94.2747 92.1319 94.972C92.3169 95.1293 92.4914 95.2137 92.6127 95.2559C92.5294 95.2345 92.4081 95.2241 92.2242 95.1976C91.3559 95.1345 90.5049 94.9908 89.6819 94.7012C87.819 94.0413 86.9721 92.5908 85.9133 91.0429L85.8789 91.0189C85.9247 90.7976 85.9758 90.5711 86.0409 90.3335L86.0278 90.2736C85.7633 90.5601 85.5149 90.8643 85.3215 91.1881C85.045 92.2575 85.2597 93.5283 86.0169 94.3309C84.7221 94.0413 83.2977 93.332 82.6419 92.1908C82.0939 91.2001 81.9706 90.1012 81.8373 89.0121C81.7685 89.6173 81.8606 90.2575 81.8373 90.9044L81.7513 91.1533L81.8373 91.4668C79.4283 91.972 77.0434 92.4815 74.6419 92.9215L74.3925 92.8496C71.6543 92.8935 69.0898 93.0976 66.369 92.6012C63.7977 92.1361 61.3215 91.4987 58.8263 90.7028C54.6263 89.3695 50.6153 87.5163 46.9377 85.0616C43.2226 82.5788 39.9341 79.6335 37.1747 76.0949C35.643 74.1533 33.0387 70.6413 32.2351 67.4523C31.9513 66.6163 31.7819 65.7481 31.8455 64.9189C31.7466 65.3455 31.6841 65.7643 31.6841 66.2105C29.757 67.8413 26.6117 68.0069 24.4925 66.4471C24.3023 66.3012 24.1581 66.2241 24.0767 66.1736C24.1753 66.1949 24.3373 66.2163 24.5513 66.1736C25.1715 66.0601 25.6862 65.8591 26.2242 65.5387C28.1633 64.3481 29.8482 60.6747 28.2283 58.6804L28.1398 58.7455C28.4825 59.2935 28.5701 59.9627 28.4997 60.6429C27.1106 62.6215 23.2731 64.1695 20.7305 63.5881Z" fill="#374441"/>
<path d="M113.557 79.7284C117.35 75.4961 120.155 70.9868 120.741 65.2054C120.753 65.0378 121.002 65.1404 121.007 65.268C121.251 70.6737 119.038 77.5472 113.857 80.1201C113.645 80.2242 113.401 79.907 113.557 79.7284Z" fill="#FFFFF7"/>
<path d="M103.127 20.5515C106.508 15.7688 111.016 11.8808 115.433 7.96081C115.867 7.93548 116.267 8.04481 116.631 8.33014C118.246 11.7061 118.058 16.7608 117.935 20.0608C117.79 24.0555 117.204 28.0408 115.531 31.6328C114.054 29.8408 112.308 28.2515 110.333 26.8875C108.231 24.9261 105.854 23.4301 102.981 22.9008C102.829 22.1181 102.9 21.3301 103.127 20.5515Z" fill="#F57A74"/>
<path d="M44.1262 6.94446C46.8115 7.92313 49.538 9.3418 51.9355 11.1111C53.5095 12.4938 54.9104 14.0258 56.109 15.5431C57.048 16.7271 57.91 17.9645 58.7604 19.2231C59.4104 20.4498 60.0423 21.6805 60.7986 22.8578C60.65 23.0578 60.499 23.2525 60.3486 23.4538C53.3079 26.3951 46.3194 29.7858 41.9782 35.9805C40.6396 34.4498 40.0792 31.8871 39.738 30.1151C39.0595 26.4871 37.6371 4.58846 44.1262 6.94446Z" fill="#F57A74"/>
<path d="M115.529 31.6328C115.549 31.5888 115.569 31.5461 115.589 31.5035C115.59 31.5035 115.59 31.5048 115.591 31.5061L115.529 31.6328Z" fill="#33322D"/>
<path d="M115.531 31.6328C114.055 29.8408 112.308 28.2515 110.333 26.8875C108.232 24.9275 105.857 23.4315 102.986 22.9008C104.067 19.4848 106.519 16.5115 108.926 13.9341C109.032 13.8208 109.139 13.7048 109.248 13.5875C110.732 12.1515 112.274 10.7648 113.824 9.39014C111.827 12.3461 110.351 15.7515 109.673 18.9688C108.563 24.2901 113.429 27.3141 115.591 31.5035C115.571 31.5461 115.551 31.5888 115.531 31.6328ZM102.901 22.1581C102.901 22.1235 102.9 22.0888 102.9 22.0555C102.9 21.5528 102.982 21.0501 103.127 20.5515C103.7 19.7421 104.305 18.9595 104.936 18.1968C104.062 19.4421 103.322 20.7581 102.901 22.1581Z" fill="#F35D5A"/>
<path d="M116.057 8.02733C114.941 9.46733 113.98 11.0433 113.174 12.6007C111.919 14.9913 110.459 17.846 110.499 20.618C110.558 24.6713 113.974 27.2447 116.018 30.4727C117.321 27.1967 117.811 23.634 117.934 20.062C118.057 16.762 118.245 11.7073 116.63 8.33133C116.45 8.18467 116.249 8.082 116.057 8.02733Z" fill="#F57A74"/>
<path d="M43.4255 6.79243C43.1942 7.29777 43.0198 7.72177 42.9791 7.83244C42.4223 9.30711 42.2146 10.8778 42.1447 12.4458C41.9879 16.0818 42.2146 21.1338 45.0281 23.8924C47.5583 26.3724 50.8682 25.0484 53.8349 24.2058C55.9989 23.5911 58.1589 23.1178 60.4051 23.3738C60.5374 23.2004 60.6713 23.0284 60.7979 22.8564C60.0417 21.6791 59.4098 20.4484 58.7598 19.2218C57.9094 17.9631 57.0474 16.7258 56.1083 15.5418C54.9098 14.0244 53.5089 12.4924 51.9349 11.1098C49.5374 9.34043 46.8109 7.92177 44.1255 6.9431C43.877 6.85777 43.6442 6.80443 43.4255 6.79243Z" fill="#F57A74"/>
<path d="M41.977 35.9805C42.4562 35.2978 42.9677 34.6471 43.5078 34.0285C42.9677 34.6471 42.4562 35.2965 41.977 35.9805ZM43.5078 34.0285C43.5161 34.0191 43.525 34.0098 43.5327 34.0005C43.5245 34.0098 43.5161 34.0191 43.5078 34.0285ZM43.5677 33.9605C43.5729 33.9538 43.5786 33.9485 43.5843 33.9418C43.5786 33.9485 43.5734 33.9538 43.5677 33.9605ZM52.9729 26.8671C54.8531 25.8658 56.8103 24.9645 58.7879 24.1138C58.7917 24.1138 58.7958 24.1138 58.7999 24.1138C56.8177 24.9645 54.8557 25.8645 52.9729 26.8671ZM39.2365 24.8738C39.2354 24.8658 39.2343 24.8578 39.2333 24.8511C39.1327 22.9525 39.0817 20.7685 39.1395 18.5898C39.0827 20.7778 39.1349 22.9711 39.2365 24.8738Z" fill="#33322D"/>
<path d="M41.9781 35.9805C41.9546 35.9538 41.9318 35.9271 41.9094 35.9005C41.9089 35.8991 41.9089 35.8978 41.9083 35.8978C40.7813 32.2685 39.7599 28.5925 39.2375 24.8738C39.1359 22.9711 39.0838 20.7778 39.1406 18.5898C39.2781 13.3858 40.0343 8.2098 42.2141 7.0298C42.2198 7.03113 42.2255 7.03247 42.2313 7.03247L42.2151 7.06714C40.5198 11.1231 40.6813 16.4858 42.1234 20.5965C43.1234 23.4551 45.1067 26.1631 48.3729 26.1631C48.437 26.1631 48.5015 26.1631 48.5666 26.1605C52.0958 26.0578 55.3021 24.2578 58.789 24.1138C56.8114 24.9645 54.8542 25.8658 52.9739 26.8671C49.4537 28.7431 46.2078 30.9765 43.6109 33.9125C43.6078 33.9165 43.6046 33.9191 43.6021 33.9231C43.5963 33.9298 43.5906 33.9351 43.5854 33.9418C43.5797 33.9485 43.5739 33.9538 43.5687 33.9605C43.5651 33.9645 43.5625 33.9671 43.5594 33.9711C43.5521 33.9791 43.5447 33.9871 43.5379 33.9951C43.5365 33.9965 43.5354 33.9991 43.5338 34.0005C43.5261 34.0098 43.5171 34.0191 43.5089 34.0285C42.9687 34.6471 42.4573 35.2978 41.9781 35.9805Z" fill="#F35D5A"/>
<path d="M38.0972 16.8996C38.4691 12.973 39.3206 6.97164 44.0967 4.96231L44.217 5.12898C43.4248 5.51564 42.7634 6.02231 42.2139 6.61031C46.3758 6.75164 50.0472 9.83831 52.703 12.181C56.5076 15.5223 59.3498 19.541 61.3206 23.8076C61.4243 24.037 61.0128 24.1023 60.8962 23.9103C58.9227 20.5143 56.8779 17.217 54.041 14.2583C51.0263 11.1103 46.8987 7.5863 41.8795 6.98497C39.5648 9.7823 39.2732 14.1543 38.9899 17.1823C38.4102 23.537 40.0087 29.785 41.9071 35.897C41.9768 36.1703 41.5664 36.1703 41.4612 35.9516C38.7446 29.881 37.4967 23.365 38.0972 16.8996Z" fill="#1B181A"/>
<path d="M108.649 13.6444C110.35 11.6164 112.81 8.75242 115.566 7.55775L115.659 7.51109H115.664C116.428 7.19376 117.203 7.00576 118.008 6.99509C118.165 6.99509 118.316 7.28843 118.113 7.29776C117.47 7.33909 116.851 7.48842 116.236 7.72442C116.774 8.07642 116.973 8.80442 117.144 9.47909C117.811 11.9084 118.159 14.2831 118.328 16.7924C118.651 21.9964 118.142 27.3844 115.908 32.1458C115.848 32.2791 115.653 32.1244 115.693 32.0111C117.291 27.9018 117.93 23.7297 117.969 19.3364C117.99 17.5951 117.87 15.8497 117.702 14.1191C117.61 13.0351 117.297 8.67642 115.871 7.87776C113.146 9.08042 110.812 11.9204 108.925 13.9337C106.442 16.5911 103.911 19.6724 102.887 23.2244C102.842 23.3698 102.644 23.2671 102.661 23.1471C103.327 19.4898 106.337 16.3818 108.649 13.6444Z" fill="#1B181A"/>
<path d="M119.199 5.17773C119.208 5.1044 119.218 5.0324 119.231 4.96174L119.207 5.17773C119.204 5.17773 119.202 5.17773 119.199 5.17773Z" fill="#181516"/>
<path d="M89.2775 29.7207C89.0417 29.5687 88.8015 29.4234 88.5567 29.286C85.6297 27.6447 82.5645 26.9007 79.313 26.3474C80.0125 25.762 81.0327 25.562 82.1311 25.562C83.8437 25.562 85.7463 26.0474 86.925 26.3114C86.965 26.3207 87.0021 26.3247 87.0354 26.3247C87.5051 26.3247 87.3359 25.506 86.925 25.354C83.9989 24.3474 81.1499 23.798 78.1901 23.798C77.8109 23.798 77.4311 23.806 77.0478 23.8247C78.6578 23.2687 80.5359 23.3194 82.1765 23.3087C82.7291 23.3087 82.4625 22.4527 82.0786 22.3567C79.9707 21.8127 77.8562 21.5407 75.7797 21.5407C69.9281 21.5407 64.3718 23.7034 60.0734 28.0754C59.7182 26.7007 59.5229 25.29 59.3374 23.8794C59.6739 23.7367 60.0103 23.594 60.3469 23.454C60.3999 23.3834 60.453 23.3127 60.5062 23.2434C60.6363 23.466 60.7661 23.6874 60.8958 23.9114C60.9426 23.9887 61.0374 24.0247 61.1275 24.0247C61.2603 24.0247 61.3822 23.946 61.3202 23.8087C60.4999 22.0327 59.5286 20.3007 58.3999 18.6407C58.3254 18.3834 58.2453 18.1287 58.1578 17.874C57.4745 15.902 56.4849 14.0514 55.2969 12.33C58.0354 14.9807 60.4827 17.8607 61.7349 21.5714C61.4645 21.998 61.2713 22.474 61.2322 23.0114C61.2311 23.0167 61.2306 23.022 61.2306 23.0287C61.2306 23.1047 61.3087 23.1887 61.3811 23.1887C61.4125 23.1887 61.4426 23.1727 61.4645 23.1354C64.7989 17.0567 74.7395 18.7847 80.3145 16.486C81.5535 15.97 83.5437 14.9394 83.5447 13.322C83.5447 13.306 83.5447 13.29 83.5442 13.274C83.5437 13.2447 83.5431 13.2167 83.5431 13.1887C83.5431 12.75 83.6254 12.586 83.7489 12.586C84.0349 12.586 84.5431 13.47 84.7677 13.854C85.2078 14.6367 85.4759 15.578 85.4754 16.4994C85.4754 17.526 85.1411 18.5274 84.3385 19.2567C83.1849 20.3034 81.9286 20.5967 80.4223 20.8194C80.3515 20.83 80.3229 20.8714 80.3229 20.922C80.3223 21.0087 80.4093 21.118 80.5109 21.118C80.5155 21.118 80.5207 21.118 80.5259 21.118C82.2994 20.9887 84.4354 20.2834 85.3483 18.6394C87.0463 19.4567 88.5453 20.0807 89.6171 21.758C90.3557 22.9194 90.8499 24.1674 90.8521 25.466C90.8526 25.7727 90.8254 26.0834 90.7677 26.3954C89.9822 23.722 87.3374 22.31 84.5682 22.31C83.9327 22.31 83.2917 22.3847 82.6639 22.534C82.5745 22.554 82.5385 22.6074 82.5379 22.6687C82.5374 22.7807 82.6546 22.9167 82.7838 22.9167C82.7863 22.9167 82.7885 22.9154 82.7911 22.9154C83.051 22.906 83.313 22.9007 83.575 22.9007C86.763 22.9007 89.9963 23.7367 90.5035 27.45C90.5254 27.6074 90.6765 27.734 90.8093 27.734C90.8879 27.734 90.9598 27.6887 90.9942 27.5807C91.1973 26.9487 91.2937 26.2994 91.2931 25.6527C91.2921 24.2154 90.8119 22.79 89.9541 21.6047C89.3062 20.6994 88.6223 20.062 87.8463 19.5514C90.4521 20.1527 92.9234 20.95 95.2327 22.3567L95.2906 22.254C94.0759 21.3087 92.7426 20.5434 91.3254 20.002C92.7723 18.5127 93.9535 16.6914 95.4593 15.19C97.463 13.1927 99.7078 11.462 102.105 9.97804C104.75 8.35804 107.437 7.05804 110.338 5.97671C112.54 5.15537 114.531 4.82471 116.669 4.82471C117.494 4.82471 118.341 4.87404 119.231 4.96338C119.218 5.03404 119.207 5.10604 119.199 5.17938C110.493 5.47671 101.68 12.4074 97.7093 19.8807C97.6515 19.8434 97.5969 19.8274 97.5463 19.8274C97.2499 19.8274 97.1073 20.394 97.4041 20.694C98.8417 22.13 100.622 23.09 102.133 24.3874C100.655 23.822 99.0947 23.2914 97.5614 23.2914C96.8311 23.2914 96.1073 23.4127 95.401 23.706C95.0021 23.8754 95.2327 24.4434 95.4921 24.6074C96.8229 25.378 98.1395 26.1274 99.3447 27.0047C98.4614 26.746 97.5453 26.61 96.6067 26.61C96.563 26.61 96.5202 26.61 96.4765 26.6114C94.9661 26.6314 93.5218 27.0034 92.1843 27.666C91.2401 27.786 90.3062 28.0167 89.3906 28.3847C88.9806 28.5487 89.2234 29.1167 89.4917 29.2834C89.5442 29.3154 89.5973 29.3487 89.6499 29.3807C89.5245 29.4914 89.3999 29.6047 89.2775 29.7207ZM85.265 21.8207C84.9661 21.8207 85.0879 22.1967 85.3155 22.2487C86.1937 22.4634 87.0463 22.5567 87.8874 22.9047C88.3573 23.0994 88.6854 23.454 89.1879 23.5714C89.2046 23.574 89.2193 23.5767 89.2327 23.5767C89.3926 23.5767 89.3245 23.318 89.2073 23.2594C88.5754 22.9527 88.1359 22.4034 87.4469 22.1514C86.7213 21.8994 86.0395 21.8327 85.2759 21.8207C85.2723 21.8207 85.2687 21.8207 85.265 21.8207ZM83.8854 14.0994C83.7937 14.0994 83.7145 14.1647 83.7578 14.29C84.7207 17.0647 82.0786 18.4767 80.2505 19.8634C79.9666 20.078 80.3161 20.5327 80.6098 20.5327C80.627 20.5327 80.6447 20.5314 80.6614 20.5274C82.1087 20.2474 83.5661 19.2434 84.2739 17.9194C84.9635 16.6087 84.7593 15.4594 84.0598 14.1994C84.0213 14.1314 83.9499 14.0994 83.8854 14.0994Z" fill="#2D3836"/>
<path d="M59.3381 23.8789C59.3131 23.6869 59.2881 23.4962 59.2637 23.3042C59.6418 23.3082 60.0219 23.3309 60.4047 23.3749C60.4386 23.3309 60.4725 23.2869 60.5063 23.2429H60.5069C60.4537 23.3122 60.4006 23.3829 60.3475 23.4536C60.011 23.5936 59.6746 23.7362 59.3381 23.8789Z" fill="#C96963"/>
<path d="M60.4056 23.375C60.0228 23.331 59.6427 23.3083 59.2646 23.3043C59.1411 22.3657 59.014 21.427 58.8379 20.5003C59.413 21.403 59.9646 22.319 60.5072 23.243C60.4734 23.287 60.4395 23.331 60.4056 23.375Z" fill="#C96963"/>
<path d="M61.128 24.0234C61.0379 24.0234 60.9431 23.9874 60.8963 23.9101C60.7665 23.6861 60.6368 23.4648 60.5067 23.2421H60.5061C59.9635 22.3181 59.4119 21.4021 58.8368 20.4994C58.7181 19.8728 58.5769 19.2528 58.4004 18.6394C59.5291 20.2994 60.5004 22.0314 61.3207 23.8074C61.3827 23.9448 61.2608 24.0234 61.128 24.0234Z" fill="#181516"/>
<path d="M119.923 38.1259C119.852 37.9579 119.778 37.7912 119.703 37.6245C119.778 37.7899 119.852 37.9579 119.923 38.1259ZM42.2803 1.65519C41.4574 1.18186 40.5699 0.801858 39.6902 0.801858C39.3339 0.801858 38.9793 0.864531 38.6309 1.00853C38.9813 0.863198 39.3375 0.800523 39.6949 0.800523C40.5725 0.800523 41.4574 1.17919 42.2803 1.65519Z" fill="#131213"/>
<path d="M92.6127 95.2559C92.5294 95.2345 92.4081 95.2241 92.2242 95.1976C91.3559 95.1345 90.5049 94.9908 89.6819 94.7012C87.819 94.0413 86.9721 92.5908 85.9133 91.0429L85.8789 91.0189C85.9247 90.7976 85.9758 90.5711 86.0409 90.3335L86.0278 90.2736C85.7633 90.5601 85.5149 90.8643 85.3215 91.1881C85.245 91.484 85.2059 91.796 85.2059 92.1096C85.2059 92.9268 85.4695 93.7507 86.0169 94.3309C84.7221 94.0413 83.2977 93.332 82.6419 92.1908C82.0939 91.2001 81.9706 90.1012 81.8373 89.0121C81.8179 89.1815 81.8111 89.3548 81.8111 89.5309C81.8111 89.9053 81.8414 90.2892 81.8414 90.6772C81.8414 90.7523 81.8398 90.8283 81.8373 90.9044L81.7513 91.1533L81.8373 91.4668C79.4283 91.972 77.0434 92.4815 74.6419 92.9215L74.3925 92.8496C73.0794 92.8711 71.8065 92.9283 70.5373 92.9283C69.1591 92.9283 67.7851 92.8601 66.369 92.6012C63.7977 92.1361 61.3215 91.4987 58.8263 90.7028C54.6263 89.3695 50.6153 87.5163 46.9377 85.0616C43.2226 82.5788 39.9341 79.6335 37.1747 76.0949C35.643 74.1533 33.0387 70.6413 32.2351 67.4523C31.9914 66.7335 31.8315 65.9924 31.8319 65.2711C31.8325 65.1533 31.8367 65.0361 31.8455 64.9189C31.7466 65.3455 31.6841 65.7643 31.6841 66.2105C30.6601 67.0772 29.2925 67.5293 27.9169 67.5293C26.7039 67.5293 25.4857 67.1772 24.4925 66.4471C24.3023 66.3012 24.1581 66.2241 24.0767 66.1736C24.133 66.1856 24.2106 66.1987 24.307 66.1987C24.3783 66.1987 24.4601 66.1908 24.5513 66.1736C25.1715 66.0601 25.6862 65.8591 26.2242 65.5387C27.6179 64.6829 28.8805 62.5439 28.8789 60.6679C28.8783 59.9345 28.6841 59.2403 28.2283 58.6804L28.1398 58.7455C28.4101 59.1772 28.5215 59.6856 28.5226 60.2148C28.5226 60.3559 28.5149 60.5001 28.4997 60.6429C27.3117 62.3345 24.333 63.7121 21.9049 63.7121C21.4934 63.7121 21.0986 63.672 20.7305 63.5881C23.5549 61.8987 24.3373 56.5627 25.507 53.8321C26.4961 51.5388 27.3482 49.0228 28.6049 46.8641C29.8606 44.7268 31.4237 43.5348 33.2653 41.9975C33.2991 41.9668 33.3133 41.9295 33.3133 41.8895C33.3133 41.7801 33.1997 41.6601 33.0898 41.6601C33.0663 41.6601 33.0439 41.6655 33.0221 41.6775C32.2559 42.0975 31.4747 42.5028 30.7529 42.9855C30.1737 38.3548 29.4289 33.8015 29.4278 29.1935C29.4273 27.1561 29.5726 25.1081 29.9419 23.0375C31.0081 17.0348 33.0966 10.6535 35.7382 5.15879C36.3543 3.86413 37.2013 1.59346 38.6315 1.00812C38.9799 0.864125 39.3346 0.801452 39.6909 0.801452C40.5706 0.801452 41.4581 1.18146 42.281 1.65479C42.4231 1.73746 42.5638 1.82146 42.7023 1.90946C38.6315 3.40946 37.295 9.45079 36.7387 13.4881C36.2351 17.0588 36.1425 20.6668 35.7382 24.2468C35.1231 29.6895 34.4565 35.1441 35.7737 40.5388C35.8174 40.6948 35.993 40.8681 36.1706 40.8681C36.2158 40.8681 36.2606 40.8575 36.3039 40.8321C38.3518 39.7321 40.5419 39.1321 42.7934 38.8121C36.9002 41.4948 32.2382 47.3708 30.7767 53.5108C30.6971 53.8015 30.9127 54.2415 31.1701 54.2415C31.2606 54.2415 31.3559 54.1868 31.4461 54.0535C33.0674 51.6948 35.3367 50.1655 37.8263 48.9468C35.6783 51.4535 34.3773 54.7001 33.6059 57.8523C33.5373 58.1293 33.7945 58.596 34.0419 58.596C34.1289 58.596 34.2149 58.5387 34.2846 58.3949C36.1081 54.7215 40.3846 53.0468 44.2763 51.9188C40.5534 55.5439 38.7649 60.2601 39.0877 65.6241C39.107 65.8559 39.2153 65.9881 39.3611 66.0413C39.4445 66.2225 39.6669 66.32 39.8767 66.32C40.1018 66.32 40.3133 66.208 40.3237 65.9679C40.333 65.2001 40.5138 64.5053 40.7726 63.8496C40.1201 67.6012 41.4622 72.1496 43.2117 74.9345C43.2867 75.0439 43.3961 75.1012 43.5305 75.1345C43.595 75.1976 43.681 75.2257 43.7701 75.2257C44.0007 75.2257 44.2575 75.0361 44.2529 74.7387C44.2414 72.5829 44.8606 70.62 45.7002 68.7069C45.6658 72.4105 46.1398 76.0788 48.1649 79.3096C50.8174 83.5105 54.5283 86.8189 59.2018 88.5935C63.5174 90.2413 67.8523 91.0257 72.3529 91.0257C73.4127 91.0257 74.4815 90.9815 75.5611 90.896C77.1482 90.7736 79.5903 90.82 80.8414 89.6173C82.2253 88.2829 82.607 86.3575 83.5986 84.7591C83.7877 86.8924 83.8882 89.0121 84.5237 91.0788C84.5737 91.2413 84.6653 91.3044 84.7701 91.3044C85.0065 91.3044 85.3097 90.9829 85.345 90.7695C85.5497 89.4377 86.0169 88.3496 86.7706 87.3335C86.9721 88.8455 87.3034 90.2137 88.2591 91.5053C88.3283 91.5987 88.4081 91.6377 88.4887 91.6377C88.7294 91.6377 88.9825 91.3028 89.0221 91.1028C89.3097 89.4591 89.8434 88.0001 90.6081 86.5653C91.4961 89.3788 93.2373 91.3471 96.2882 92.1148C96.3149 92.1215 96.3414 92.1241 96.3685 92.1241C96.6559 92.1241 96.9357 91.7481 96.8721 91.4815C96.2153 88.9345 96.2679 86.1481 97.6559 83.8976C97.6841 83.9001 97.7117 83.9028 97.7398 83.9044C98.2346 85.4559 99.2783 86.0533 100.583 86.0533C104.115 86.0533 109.566 81.6747 111.266 79.9695C114.358 76.8548 116.788 72.9044 117.603 68.5309C118.009 66.384 118.114 64.2856 117.657 62.1413C117.298 60.4949 116.407 58.9815 115.694 57.4335C117.912 58.6387 118.78 61.5548 119.943 63.6892C120.021 63.8335 120.127 63.8908 120.236 63.8908C120.467 63.8908 120.714 63.6345 120.753 63.3763C121.466 58.3241 117.703 55.2815 115.22 51.4508C119.012 52.1295 120.899 57.0908 122.838 59.9293C122.899 60.0257 122.98 60.0653 123.066 60.0653C123.307 60.0653 123.589 59.7548 123.589 59.5309C123.683 53.3161 118.363 49.2588 114.235 45.2535C116.614 45.5841 118.585 47.0655 120.326 48.7401C120.407 48.8188 120.498 48.8521 120.587 48.8521C120.868 48.8521 121.14 48.5215 121.085 48.2188C120.134 43.1668 118.253 38.5148 115.375 34.3095C116.858 35.1228 118.085 36.3255 119.533 37.2575C119.591 37.3788 119.648 37.5015 119.703 37.6241C119.779 37.7908 119.852 37.9575 119.924 38.1255C119.926 38.1308 119.928 38.1361 119.931 38.1415C119.932 38.1428 119.932 38.1428 119.932 38.1441C120.511 39.5055 120.97 40.9188 121.372 42.2988C122.015 44.5175 122.572 47.0095 124.187 48.7708C125.229 49.9268 126.573 50.9615 128.176 50.9615C128.22 50.9615 128.265 50.9615 128.309 50.9601C128.583 50.9521 129.053 50.4628 129.185 50.4628C129.208 50.4628 129.22 50.4775 129.22 50.5121C129.22 50.5321 129.216 50.5575 129.207 50.5895C128.693 52.6268 127.415 53.3908 125.727 53.3908C125.317 53.3908 124.884 53.3455 124.431 53.2628L124.395 53.2721C123.748 52.1215 122.936 51.0615 121.895 50.1695L121.744 50.1508C121.958 50.4641 122.166 50.7948 122.376 51.1201C124.569 54.0481 125.503 57.3293 125.5 60.7257C125.499 62.7804 125.154 64.8763 124.539 66.9627C124.187 64.6976 123.642 62.4053 122.05 60.6987C121.888 60.272 121.657 59.8523 121.408 59.4471C121.611 60.1309 121.744 60.8268 121.817 61.5241C121.974 62.3044 122.039 63.1053 122.04 63.9132C122.041 66.0413 121.592 68.2293 121.176 70.2616C120.406 74.0268 118.187 77.4387 115.214 79.9001C112.498 82.1559 109.598 84.5892 106.407 86.1096C103.524 87.4747 100.48 87.5283 97.5611 88.4711C97.5477 88.372 97.5409 88.2711 97.5409 88.1695C97.5398 87.7881 97.6351 87.3908 97.8455 86.9924V86.9096C97.4299 87.3736 97.2773 88.084 97.2539 88.6747C97.2534 88.6892 97.2534 88.7053 97.2534 88.72C97.2529 89.2679 97.5138 89.8189 97.8701 90.3044C98.3961 90.9429 99.3101 91.6096 100.184 91.7867C100.329 91.8601 100.47 91.9225 100.589 91.9892C101.029 92.1772 102.109 92.0976 102.11 92.2788C102.11 92.3507 101.941 92.4627 101.499 92.6481C100.363 93.1257 99.1523 93.5653 97.9043 93.584C97.8414 93.5856 97.7783 93.5856 97.7158 93.5856C94.931 93.5856 93.0539 92.6481 90.8226 91.1403C90.8158 91.0387 90.8133 90.9345 90.8127 90.8293C90.8127 90.4711 90.8477 90.0935 90.8925 89.6892C90.5414 90.2668 90.3758 90.9173 90.3747 91.596C90.3742 91.8471 90.3966 92.1012 90.4403 92.3575C90.769 93.3788 91.2982 94.2747 92.1319 94.972C92.3169 95.1293 92.4914 95.2137 92.6127 95.2559ZM120.829 65.1173C120.784 65.1173 120.746 65.1429 120.742 65.2053C120.156 70.9867 117.35 75.496 113.558 79.7283C113.423 79.8815 113.587 80.1403 113.771 80.1403C113.8 80.1403 113.829 80.1335 113.858 80.12C119.039 77.5471 121.251 70.6736 121.008 65.2679C121.004 65.1881 120.905 65.1173 120.829 65.1173ZM29.2643 59.0257C29.2278 59.0257 29.1991 59.0471 29.2065 59.0987C29.4043 60.2976 29.6679 61.5908 29.3158 62.7856C29.0018 63.8935 28.471 64.5788 27.7414 65.4403C27.6226 65.5976 27.7758 65.8736 27.9575 65.8736C27.9877 65.8736 28.019 65.8653 28.0491 65.8496C30.4263 64.5335 29.8482 61.2924 29.3914 59.1293C29.3815 59.0668 29.3149 59.0257 29.2643 59.0257ZM29.8315 47.6601C28.5701 49.6175 27.6377 51.3241 27.1611 53.6335C26.6815 55.9044 26.3753 58.0481 25.1362 60.0591C25.0133 60.2695 25.257 60.5471 25.4825 60.5471C25.5425 60.5471 25.6007 60.5268 25.6507 60.4815C27.1179 59.0935 27.3658 57.1908 27.6482 55.272C28.0663 52.5828 28.7882 50.2095 30.0169 47.7788L29.8315 47.6601Z" fill="#242B2B"/>
<path d="M113.771 80.1406C113.586 80.1406 113.422 79.8818 113.558 79.7286C117.35 75.4964 120.155 70.987 120.741 65.2057C120.746 65.1433 120.783 65.1177 120.829 65.1177C120.905 65.1177 121.004 65.1885 121.008 65.2682C121.251 70.674 119.038 77.5474 113.858 80.1204C113.829 80.1338 113.799 80.1406 113.771 80.1406Z" fill="#9CA19F"/>
<path d="M83.8697 44.1178C83.9957 53.6884 89.8602 61.3682 96.9577 61.2646C104.04 61.1714 109.688 53.3325 109.562 43.7578C109.421 34.1898 103.571 26.5151 96.4769 26.6098C89.3796 26.7058 83.7301 34.5458 83.8697 44.1178Z" fill="#1B181A"/>
<path d="M84.99 43.4967C85.1192 52.3381 90.5212 59.4354 97.0629 59.3448C103.605 59.2542 108.804 52.0154 108.682 43.1687C108.561 34.3167 103.164 27.2327 96.6228 27.3167C90.081 27.4087 84.8805 34.6527 84.99 43.4967Z" fill="#D2D4CC"/>
<path d="M57.0658 45.683C57.8799 55.7735 64.5987 63.4617 72.0706 62.8617C79.5466 62.259 84.9528 53.5963 84.143 43.5163C83.332 33.4243 76.6163 25.7337 69.1419 26.3337C61.6611 26.9403 56.2611 35.599 57.0658 45.683Z" fill="#1B181A"/>
<path d="M58.211 44.9504C58.9626 54.2678 65.1579 61.3756 72.0522 60.8278C78.9412 60.2688 83.9255 52.2691 83.185 42.9504C82.4261 33.6198 76.2427 26.5198 69.337 27.0731C62.4412 27.6238 57.4636 35.6264 58.211 44.9504Z" fill="#D2D4CC"/>
<path d="M84.9862 42.5772C85.1144 50.9132 90.5092 57.5998 97.0409 57.5148C103.589 57.4304 108.8 50.5906 108.677 42.2519C108.562 33.9146 103.165 27.2266 96.6237 27.3159C90.082 27.4012 84.871 34.2346 84.9862 42.5772Z" fill="#FFFFF7"/>
<path d="M58.2344 44.1482C58.9803 53.0562 65.1823 59.8523 72.0704 59.3226C78.9604 58.7987 83.9386 51.1562 83.1866 42.2469C82.4276 33.3295 76.2386 26.5389 69.3386 27.0629C62.4604 27.5909 57.4762 35.2429 58.2344 44.1482Z" fill="#FFFFF7"/>
<path d="M66.9098 49.0116C66.5885 53.7556 69.1697 57.7889 72.6906 58.0265C76.1906 58.2599 79.2958 54.6049 79.614 49.8623C79.9265 45.1169 77.3369 41.0809 73.8354 40.8423C70.3254 40.6103 67.224 44.2689 66.9098 49.0116Z" fill="#1B181A"/>
<path d="M74.8952 44.8617C74.7681 46.8017 75.8206 48.4497 77.2624 48.5457C78.7056 48.6497 79.9592 47.1484 80.0946 45.2124C80.2269 43.2697 79.1649 41.6137 77.7332 41.523C76.3025 41.4243 75.0212 42.927 74.8952 44.8617Z" fill="white"/>
<path d="M92.6475 49.6084C92.8199 54.3631 95.8016 58.1112 99.3167 57.9872C102.837 57.867 105.551 53.9124 105.379 49.1604C105.21 44.4018 102.225 40.6498 98.709 40.7804C95.1995 40.9031 92.4855 44.8604 92.6475 49.6084Z" fill="#1B181A"/>
<path d="M100.178 44.6629C100.242 46.6055 101.469 48.1349 102.91 48.0909C104.347 48.0442 105.452 46.4242 105.378 44.4775C105.314 42.5322 104.091 41.0029 102.651 41.0562C101.226 41.1069 100.115 42.7175 100.178 44.6629Z" fill="white"/>
<path d="M58.2119 44.9414C58.1364 43.9961 58.1203 43.0641 58.1588 42.1521C58.152 42.8094 58.1764 43.4761 58.2338 44.1494C58.2536 44.3814 58.2764 44.6121 58.3036 44.8414C58.2728 44.8747 58.2422 44.9081 58.2119 44.9414Z" fill="#E4E5DE"/>
<path d="M58.3041 44.8418C58.2769 44.6125 58.2541 44.3818 58.2342 44.1498C58.1769 43.4765 58.1525 42.8098 58.1593 42.1525C58.502 34.0778 63.1588 27.5685 69.3384 27.0738C69.5916 27.0525 69.8436 27.0431 70.0941 27.0431C76.69 27.0431 82.455 33.9618 83.1864 42.9511C83.2208 43.4418 83.2384 43.9338 83.2384 44.4231C80.414 40.7325 77.0249 38.2498 71.7056 38.2498C71.6244 38.2498 71.5436 38.2511 71.4618 38.2511C66.3498 38.3125 61.716 41.1205 58.3041 44.8418Z" fill="#FFFFFA"/>
<path d="M85.0689 44.8066C85.0392 44.3706 85.0096 43.936 84.9918 43.496C84.9908 43.4013 84.9902 43.3066 84.9902 43.212C84.9902 43.0906 84.9913 42.9693 84.9934 42.8493C85.011 43.464 85.058 44.0693 85.1314 44.664C85.1101 44.712 85.0892 44.7586 85.0689 44.8066Z" fill="#E4E5DE"/>
<path d="M85.1302 44.6641C85.0567 44.0694 85.0098 43.4641 84.9922 42.8494C85.1369 34.3014 90.2422 27.4054 96.6234 27.3161C96.6635 27.3161 96.7041 27.3161 96.7442 27.3161C102.959 27.3161 108.095 33.7961 108.63 42.0787C105.962 39.0934 102.302 36.9307 98.3239 36.9307C97.8234 36.9307 97.3177 36.9654 96.8083 37.0361C92.1469 37.6734 87.0983 40.2774 85.1302 44.6641Z" fill="#FFFFFA"/>
<path d="M60.4242 25.2937C61.3544 21.6044 65.1164 19.7764 68.6888 19.8897C72.5758 20.0164 75.5038 22.6911 77.4117 25.8351C77.6092 26.1644 77.2404 26.3684 76.9972 26.1084C74.6456 23.6351 71.994 21.9857 68.5038 21.9631C65.4352 21.9497 63.6518 24.2204 61.7185 26.1964C61.2388 26.6884 60.283 25.8537 60.4242 25.2937Z" fill="#1B181A"/>
<path d="M106.617 24.5218C105.503 20.8804 101.643 19.2631 98.0757 19.5618C94.2151 19.8884 91.4183 22.7244 89.6902 25.9631C89.5033 26.3044 89.8891 26.4818 90.1157 26.2138C92.3167 23.6124 94.8923 21.8364 98.3657 21.6324C101.439 21.4524 103.339 23.6258 105.378 25.4924C105.874 25.9564 106.797 25.0751 106.617 24.5218Z" fill="#1B181A"/>
<path d="M118.462 29.1309C118.274 29.1309 118.045 28.8789 118.066 28.6882C118.658 22.5082 120.624 15.6509 118.513 9.52152C118.482 9.43885 118.525 9.40285 118.582 9.40285C118.636 9.40285 118.702 9.43352 118.733 9.48685C120.087 12.4589 120.029 15.8149 120.201 19.0149C120.383 22.3309 119.982 25.9215 118.651 28.9895C118.606 29.0895 118.537 29.1309 118.462 29.1309Z" fill="#7E8A86"/>
<path d="M56.1266 14.4297C56.086 14.4297 56.0407 14.4123 55.9984 14.3697C53.8918 12.1723 51.5584 10.2217 49.3984 8.06834L49.537 7.93501C51.7656 10.023 54.1751 11.8697 56.2074 14.163C56.324 14.2884 56.2423 14.4297 56.1266 14.4297Z" fill="#7E8A86"/>
<path d="M80.6109 20.5312C80.3172 20.5312 79.9677 20.0766 80.2516 19.8619C82.0797 18.4752 84.7218 17.0632 83.7589 14.2886C83.7156 14.1632 83.7948 14.0979 83.8865 14.0979C83.951 14.0979 84.0224 14.1299 84.0609 14.1979C84.7604 15.4579 84.9646 16.6072 84.275 17.9179C83.5672 19.2419 82.1098 20.2459 80.6625 20.5259C80.6458 20.5299 80.6281 20.5312 80.6109 20.5312Z" fill="#78837F"/>
<path d="M89.2329 23.5762C89.2195 23.5762 89.2048 23.5735 89.1881 23.5708C88.6856 23.4535 88.3575 23.0988 87.8876 22.9042C87.0465 22.5562 86.1939 22.4628 85.3157 22.2482C85.0881 22.1962 84.9663 21.8202 85.2652 21.8202C85.2689 21.8202 85.2725 21.8202 85.2761 21.8202C86.0397 21.8322 86.7215 21.8988 87.4471 22.1508C88.1361 22.4028 88.5756 22.9522 89.2075 23.2588C89.3247 23.3175 89.3928 23.5762 89.2329 23.5762Z" fill="#78837F"/>
<path d="M123.242 53.3402C124.458 56.1495 125.31 58.5922 125.153 61.7214C125.128 62.0485 124.636 61.8375 124.613 61.5854C124.537 60.2761 124.505 58.9693 124.308 57.6802C124.094 56.1657 123.492 54.7949 123.021 53.3642C122.964 53.1975 123.19 53.2095 123.242 53.3402Z" fill="#FFFFF7"/>
<path d="M25.4828 60.5488C25.2573 60.5488 25.0136 60.2712 25.1365 60.0608C26.3756 58.0499 26.6819 55.9062 27.1615 53.6352C27.638 51.3259 28.5704 49.6192 29.8319 47.6619L30.0172 47.7806C28.7885 50.2112 28.0667 52.5846 27.6485 55.2738C27.3661 57.1926 27.1183 59.0952 25.6511 60.4832C25.6011 60.5286 25.5428 60.5488 25.4828 60.5488Z" fill="#717A78"/>
<path d="M27.9573 65.875C27.7755 65.875 27.6223 65.599 27.7411 65.4417C28.4707 64.5802 29.0015 63.8949 29.3155 62.787C29.6677 61.5922 29.4041 60.299 29.2062 59.1001C29.1989 59.0485 29.2275 59.0271 29.2641 59.0271C29.3146 59.0271 29.3813 59.0682 29.3911 59.1307C29.8479 61.2938 30.4261 64.5349 28.0489 65.851C28.0187 65.8667 27.9874 65.875 27.9573 65.875Z" fill="#717A78"/>
<path d="M72.604 68.6046C73.4941 67.8696 74.5879 66.9166 75.7583 66.1884C76.7436 65.8123 77.7254 65.5191 78.6649 65.3644C80.2332 65.1019 81.7077 65.5379 83.1864 65.9754C84.4629 66.3514 85.7427 66.7286 87.0895 66.6551C88.8077 66.5712 89.9301 65.1566 91.4993 65.6899C91.5416 65.5728 91.5869 65.454 91.6321 65.3207C91.7249 65.1327 92.0155 65.3644 91.9916 65.5191C91.9619 65.6608 91.9619 65.7884 91.9687 65.9019L92.0968 65.9696C92.3733 66.1404 92.4077 66.4472 92.2979 66.6243C92.6515 66.8404 93.2369 66.7447 93.8791 66.518C94.8165 66.1884 95.7884 65.9696 96.7504 65.7286C97.4905 65.5634 98.216 65.466 98.9212 65.442C104.787 66.3243 108.759 73.9696 105.256 79.3123C104.358 80.691 103.183 81.9858 101.706 82.7858C99.3957 84.0447 97.3348 83.8822 94.8463 83.2686C93.0165 82.8191 92.2807 83.7858 90.8583 84.8456C89.1583 86.0994 87.5697 85.5098 85.9255 84.9191C84.6463 84.4608 83.3332 84.0019 81.9072 84.4123C78.4171 85.4207 74.9244 86.6155 71.4791 84.5004C69.816 83.4754 68.3717 82.0139 67.6873 80.1404C67.2192 78.8592 67.126 77.691 67.2479 76.518C68.0233 73.2832 69.9337 70.7884 72.604 68.6046Z" fill="white"/>
<path d="M71.4785 84.5005C69.8154 83.4754 68.3712 82.014 67.6868 80.1405C67.6031 79.9208 67.5348 79.7046 67.4785 79.4926C67.5373 79.7062 67.6067 79.9218 67.6868 80.1405C68.3712 82.014 69.8154 83.4754 71.4785 84.5005Z" fill="#5B6767"/>
<path d="M75.7058 85.6738C74.2913 85.6738 72.8809 85.3609 71.4788 84.5005C69.8157 83.4754 68.3714 82.014 67.687 80.1405C67.6069 79.9218 67.5376 79.7062 67.4788 79.4926C67.448 79.3765 67.4209 79.2634 67.3965 79.15C67.5157 79.4848 67.6642 79.814 67.8438 80.1364C69.6902 83.2848 72.8564 84.9421 76.4585 85.2421C76.7241 85.2634 76.9881 85.2754 77.2496 85.2754C79.8533 85.2754 82.2533 84.1968 84.2694 82.5833C85.0386 83.638 85.6855 84.614 86.6105 85.162C86.3829 85.0848 86.1548 85.002 85.9252 84.9192C84.9954 84.5858 84.0476 84.2525 83.0522 84.2525C82.6777 84.2525 82.2965 84.3005 81.9069 84.4124C79.837 85.0098 77.7668 85.6738 75.7058 85.6738ZM88.9533 85.5781C89.0121 85.5697 89.0714 85.562 89.1318 85.5525C90.0168 85.4124 90.5042 84.95 91.123 84.3577C91.2908 84.1874 92.2115 83.1432 92.7323 82.7858L92.7501 82.7729L92.773 82.7541C92.82 82.5994 92.9594 82.5301 93.1173 82.5301C93.173 82.5301 93.2313 82.5396 93.2881 82.5552L93.3282 82.4994V82.4874C93.8809 82.8192 94.4652 83.1005 95.07 83.3233C94.9954 83.3062 94.9209 83.2874 94.846 83.2686C94.5298 83.191 94.247 83.1552 93.987 83.1552C92.7418 83.1552 92.035 83.9686 90.8579 84.8457C90.2099 85.3233 89.5782 85.5338 88.9533 85.5781ZM76.9298 84.4609C74.1465 84.4609 71.297 83.5328 69.4881 81.379C69.0517 80.8566 68.698 80.3364 68.4194 79.8208C70.2261 81.4276 72.8928 82.262 75.6996 82.262C76.0517 82.2634 76.4047 82.25 76.7594 82.2233C83.1959 81.7457 87.2918 76.6686 89.1646 70.9448C89.1954 71.2005 89.2282 71.4566 89.2642 71.7124C89.1397 73.8448 88.8146 75.9166 87.6381 77.8953C86.7512 79.3738 85.5824 80.7661 84.2037 81.8874C84.1714 81.8754 84.1397 81.8686 84.1094 81.8686C83.9943 81.8686 83.9063 81.9552 83.9375 82.0848C82.7694 82.99 81.4542 83.6953 80.0423 84.0672C79.0563 84.3233 77.9976 84.4609 76.9298 84.4609ZM97.9167 82.9806C93.7318 82.9822 89.8866 80.3833 89.1126 75.6729C89.3194 74.9566 89.4694 74.2244 89.5736 73.4833C89.9204 75.0729 90.4725 76.5765 91.4594 77.7822C93.2219 79.9338 96.1047 81.1062 98.9146 81.1062C99.4261 81.1062 99.935 81.0672 100.434 80.9885C104.08 80.403 105.827 77.9713 106.304 75.0525C106.359 76.3697 106.108 77.6885 105.535 78.8541C105.448 79.0088 105.355 79.162 105.256 79.3124C104.969 79.7525 104.654 80.1848 104.31 80.5942C103.722 81.1978 103.003 81.7062 102.146 82.0817C100.767 82.6874 99.3225 82.9806 97.9167 82.9806Z" fill="#BDC0C1"/>
<path d="M67.8442 80.1349C69.6906 83.2833 72.8567 84.9406 76.4588 85.2406C79.3666 85.4844 82.051 84.3562 84.2698 82.5818C85.5827 84.3808 86.5379 85.9562 89.1322 85.551C90.0171 85.4109 90.5046 84.9485 91.1234 84.3562C91.2911 84.186 92.2119 83.1417 92.7327 82.7844L92.7504 82.7714L92.7734 82.7526C92.837 82.5417 93.0707 82.4912 93.2884 82.5537L93.3286 82.498V82.486C96.0988 84.15 99.652 84.5177 102.627 82.8313C107.692 79.986 108.276 73.0229 104.096 69.274C104.623 69.8698 104.991 70.5938 105.278 71.3313C107.294 75.0229 106.42 80.2048 102.146 82.0802C96.664 84.487 90.1468 81.9646 89.113 75.6714C89.7734 73.3844 89.8556 70.9338 89.7171 68.5032C91.4812 68.3125 92.6988 67.8193 93.8572 66.3313C95.0322 64.8458 94.8296 63.8953 93.8384 63.1928C93.3286 62.7469 92.5942 62.4552 91.9854 62.2792C90.4275 61.8365 88.8078 61.8286 87.251 62.151C86.5838 62.263 85.902 62.4406 85.1775 62.6844C82.752 63.5166 83.1056 65.2928 84.9646 66.7657C86.3124 67.8286 87.4536 68.6912 89.2594 68.55L89.3802 68.5349C89.2536 71.7928 89.3916 74.9458 87.6384 77.8938C86.7515 79.3724 85.5827 80.7646 84.204 81.886C84.0483 81.8261 83.8988 81.9193 83.9379 82.0833C82.7698 82.9885 81.4546 83.6938 80.0427 84.0657C76.4879 84.9912 71.9911 84.3562 69.4884 81.3776C66.363 77.6313 67.478 74.075 70.1078 70.7594C67.3526 72.9682 66.0422 76.8896 67.8442 80.1349Z" fill="#1B181A"/>
<path d="M87.1153 67.6549C86.5732 67.3669 83.1221 64.9497 84.2691 63.9805C85.1476 63.2347 86.2825 63.1508 87.3591 62.844C87.644 62.7603 87.9205 62.7055 88.2003 62.6472C88.9164 62.568 89.67 62.5388 90.5087 62.6284C90.6309 62.6388 90.7809 62.6535 90.9357 62.6748C91.8997 62.8696 92.8309 63.2655 93.8263 63.8013C94.092 64.1013 94.2143 64.456 93.9352 64.9133C93.4383 65.7617 92.6981 66.9868 91.7133 67.3748C90.4929 67.8628 88.3576 68.3123 87.1153 67.6549Z" fill="#F57A74"/>
<path d="M84.2691 63.9811C84.7331 63.5888 85.2587 63.3811 85.8128 63.2352C85.8076 64.7983 87.3544 66.3019 88.8659 67.0436C89.4087 67.3169 89.9935 67.5488 90.5956 67.7275C89.432 68.0196 88.0315 68.1436 87.1153 67.6554C86.5732 67.3674 83.1221 64.9503 84.2691 63.9811Z" fill="#C65D61"/>
<path d="M84.5918 82.3198C85.5761 81.4932 86.4615 80.5422 87.2141 79.5266C87.9615 78.5208 88.4829 77.4463 88.8771 76.3302C89.3386 78.8266 90.9151 80.9078 92.9755 82.2599C92.5933 82.5343 91.5047 83.1651 90.9709 83.6703C90.2022 84.389 89.5818 85.0422 88.4365 85.0864C86.3861 85.1703 85.6099 83.689 84.5918 82.3198Z" fill="#B54064"/>
<path d="M89.0972 81.6503C90.1628 82.0077 90.769 82.6421 91.2748 83.4155L90.9721 83.6702C90.2034 84.3889 89.583 85.0421 88.4377 85.0863C86.5492 85.165 85.733 83.9103 84.8242 82.6421C85.9992 81.6503 87.5748 81.1385 89.0972 81.6503Z" fill="#97164D"/>
<path d="M90.7684 66.2436C90.9663 65.8112 91.4356 65.5717 91.771 65.2472C92.2534 64.7836 92.2882 64.3144 91.9382 63.7384C91.8408 63.5742 92.0267 63.4717 92.1471 63.605C92.5428 64.0384 92.8835 64.5529 92.7034 65.1685C92.5242 65.7873 91.8695 66.5529 91.2512 66.7409C90.995 66.8144 90.6491 66.5076 90.7684 66.2436Z" fill="white"/>
<path d="M89.2122 66.9156C89.3616 66.6958 89.5367 66.6796 89.7799 66.5984C90.0174 66.5078 90.3288 66.8995 90.0726 67.0438C89.908 67.1438 89.7466 67.2223 89.5767 67.2916C89.4048 67.3676 89.0867 67.0943 89.2122 66.9156Z" fill="white"/>
<path d="M75.6893 73.3498C76.2439 73.6722 76.7934 73.9816 77.3701 74.279C77.5819 74.3764 77.8133 74.527 78.0685 74.6816C73.6341 73.1988 68.6893 71.0764 65.0653 67.9483C64.5221 67.3988 64.0491 66.791 63.6523 66.1483C66.7753 69.4082 71.3242 71.6472 75.6893 73.3498Z" fill="#451F13"/>
<path d="M73.5522 75.3767C73.1881 75.298 72.8173 75.2219 72.434 75.1527C69.7324 74.3834 67.0152 73.8006 64.2668 73.3776C63.0954 73.1366 61.9266 72.8886 60.7476 72.6724C59.3762 72.4058 57.9976 72.2287 56.6074 72.0833C63.6418 72.0391 70.6522 73.7084 77.1705 76.2715C75.9501 76.0699 74.7762 75.6382 73.5522 75.3767Z" fill="#451F13"/>
<path d="M57.9902 80.7754L58.0528 80.5645C63.5938 78.7155 70.5069 77.503 76.4694 78.691C70.2818 77.8457 64.023 79.1858 57.9902 80.7754Z" fill="#451F13"/>
<path d="M104.288 70.8749C103.738 71.2015 103.184 71.5067 102.609 71.7937C102.397 71.9041 102.164 72.0536 101.91 72.2109C106.338 70.7271 111.289 68.5989 114.913 65.476C115.457 64.9307 115.932 64.3213 116.326 63.6749C113.205 66.9359 108.654 69.1843 104.288 70.8749Z" fill="#451F13"/>
<path d="M106.419 72.9085C106.796 72.8298 107.167 72.7522 107.542 72.6845C110.24 71.9121 112.961 71.3257 115.711 70.9085C116.88 70.659 118.057 70.4205 119.231 70.2002C120.605 69.9335 121.987 69.7549 123.368 69.6111C116.336 69.5694 109.326 71.2418 102.812 73.8027C104.034 73.6027 105.204 73.1658 106.419 72.9085Z" fill="#451F13"/>
<path d="M121.988 78.293L121.923 78.0862C116.381 76.2435 109.475 75.0288 103.506 76.2111C109.697 75.3768 115.954 76.7127 121.988 78.293Z" fill="#451F13"/>
<path d="M89.3163 84.5605L88.9685 84.512L88.8242 84.3573L88.842 83.9376C89.3341 83.4787 90.2372 83.724 90.3472 82.8761L90.5086 82.8964C90.6253 83.312 90.6486 83.6059 90.3696 83.9548C90.1461 84.2335 89.6294 84.3761 89.3163 84.5605Z" fill="#AA386F"/>
<path d="M9.31057 80.7793C11.8038 79.3049 11.16 76.5563 10.9091 74.1205C10.8908 73.9418 11.1028 74.1126 11.1283 74.1929C11.6903 75.911 12.3111 77.1246 12.107 78.9741C11.9622 80.2897 11.3471 81.6074 9.93817 81.8178C9.57204 81.8725 8.8991 81.023 9.31057 80.7793Z" fill="#FFFFF7"/>
</svg>
