<svg width="2033" height="2045" viewBox="0 0 2033 2045" fill="none" xmlns="http://www.w3.org/2000/svg">
<path d="M739.442 802.535C861.322 868.248 982.64 662.12 987.695 512.719C992.188 362.757 949.439 238.031 879.232 163.331C809.025 88.6302 738.4 92.6642 668.802 111.9C617.012 126.214 576 155.505 554.096 225.151C542.301 261.659 533.876 309.961 533.876 372.305C533.876 425.663 541.178 478.458 554.096 529.008C585.548 650.887 652.947 756.479 739.442 802.535Z" fill="#7928AA"/>
<path d="M1244.37 840.165C1346.59 868.81 1446.57 742.437 1507.23 613.817C1535.31 553.72 1554.97 493.623 1562.27 447.567C1575.19 367.25 1567.12 213.731 1498.62 153.284C1430.4 93.074 1312.88 111.295 1235.07 157.943C1152.66 207.351 1122.49 270.083 1098.9 433.525C1075.88 596.968 1094.97 798.041 1244.37 840.165Z" fill="#7928AA"/>
<path d="M1661.12 783.999C1661.12 783.999 1570.13 849.151 1507.79 943.51C1478.58 987.881 1454.99 1038.99 1450.5 1092.91C1441.51 1199.63 1458.93 1283.87 1507.79 1331.05C1535.87 1358.57 1574.07 1373.18 1624.05 1373.18C1759.97 1373.18 1932.96 1176.6 1932.96 994.059C1932.4 812.082 1834.11 671.668 1661.12 783.999Z" fill="#7928AA"/>
<path d="M553.534 1165.37C575.439 1122.68 579.371 1060.9 565.891 971.032C563.082 951.936 558.589 933.963 553.534 915.99C506.355 760.411 366.087 633.178 262.518 632.008C120.912 630.409 65.4542 863.194 121.62 1003.61C177.786 1144.02 285.624 1270.4 416.49 1246.81C484.451 1235.01 529.945 1211.42 553.534 1165.37Z" fill="#7928AA"/>
<path d="M1507.23 1519.77C1415.68 1329.37 1258.41 1150.2 1188.21 1087.86C1103.96 1013.16 922.141 1024.03 806.918 1077.93C693.126 1131.16 697.319 1206.93 553.534 1382.73C499.054 1449.56 450.751 1521.46 420.983 1593.35C328.872 1818.01 355.298 1856.88 441.687 1925.67C506.655 1977.41 696.656 1904.16 715.752 1900.23C851.673 1872.15 958.489 1766.34 1183.15 1855.64C1311.21 1906.19 1466.01 1923.77 1537.34 1868.17C1590.7 1826.6 1583.05 1734.32 1553.28 1635.47C1541.49 1597.28 1525.76 1558.53 1507.23 1519.77Z" fill="#7928AA"/>
</svg>
